<svg width="26" height="25" fill="none" xmlns="http://www.w3.org/2000/svg"><g clip-path="url(#a)"><path d="M14.562 2.212c0-.834-.715-1.508-1.601-1.508s-1.6.674-1.6 1.508V13.65l-3.673-3.46a1.674 1.674 0 0 0-2.266 0 1.45 1.45 0 0 0 0 2.135l6.403 6.033c.626.589 1.641.589 2.267 0l6.403-6.033a1.45 1.45 0 0 0 0-2.134 1.674 1.674 0 0 0-2.266 0l-3.667 3.459V2.212ZM3.356 17.292c-1.766 0-3.202 1.353-3.202 3.016v1.509c0 1.663 1.436 3.016 3.202 3.016h19.21c1.766 0 3.202-1.353 3.202-3.016v-1.509c0-1.663-1.436-3.015-3.202-3.015h-5.078l-2.266 2.134c-1.25 1.178-3.277 1.178-4.527 0l-2.261-2.134H3.356Zm18.41 2.64c.318 0 .624.119.849.33.225.213.351.5.351.8 0 .3-.126.588-.351.8a1.24 1.24 0 0 1-.85.332c-.318 0-.623-.12-.848-.332a1.099 1.099 0 0 1-.352-.8c0-.3.127-.587.352-.8.225-.211.53-.33.849-.33Z" fill="#160321"/></g><defs><clipPath id="a"><path fill="#fff" transform="translate(.154 .704)" d="M0 0h25.614v24.128H0z"/></clipPath></defs></svg>