<svg width="248" height="31" fill="none" xmlns="http://www.w3.org/2000/svg"><path d="M50.484 3.61 44.125 24h-3.688L34.078 3.61h3.39l4.829 16.14 4.797-16.14h3.39ZM62.359 24H58.42v-3.938h3.938V24ZM86.061 24h-4.094l-5.28-8.25h-1.47V24h-3.234V3.61h6.719c2.24 0 3.979.515 5.219 1.546 1.24 1.021 1.859 2.537 1.859 4.547 0 .896-.14 1.688-.422 2.375a4.929 4.929 0 0 1-1.172 1.75c-.5.49-1.088.88-1.765 1.172a8.426 8.426 0 0 1-2.172.578L86.06 24ZM82.546 9.656c0-1.041-.344-1.823-1.032-2.344-.677-.52-1.614-.78-2.812-.78h-3.484v6.296h3.484c1.198 0 2.135-.26 2.812-.781.688-.521 1.032-1.318 1.032-2.39ZM104.264 16.734c0 1.136-.183 2.167-.547 3.094a6.78 6.78 0 0 1-1.547 2.406 7.075 7.075 0 0 1-2.406 1.563c-.938.375-1.985.562-3.14.562-1.136 0-2.173-.187-3.11-.562a7.24 7.24 0 0 1-2.422-1.563 7.079 7.079 0 0 1-1.547-2.406c-.354-.927-.531-1.958-.531-3.094 0-1.104.177-2.125.531-3.062.365-.948.88-1.76 1.547-2.438a6.825 6.825 0 0 1 2.422-1.578c.937-.375 1.974-.562 3.11-.562 1.155 0 2.202.187 3.14.562.937.365 1.739.89 2.406 1.578a6.726 6.726 0 0 1 1.547 2.438c.364.937.547 1.958.547 3.062Zm-3.219 0a5.47 5.47 0 0 0-.313-1.859 4.097 4.097 0 0 0-.874-1.516 4.125 4.125 0 0 0-1.407-.984c-.541-.25-1.15-.375-1.828-.375-.687 0-1.302.125-1.844.375-.541.24-1 .568-1.375.984a4.422 4.422 0 0 0-.875 1.516 5.748 5.748 0 0 0-.296 1.86c0 .687.099 1.312.296 1.874a4.7 4.7 0 0 0 .875 1.485c.375.427.834.76 1.375 1 .542.229 1.157.343 1.844.343.677 0 1.287-.114 1.828-.343a4.027 4.027 0 0 0 1.407-1c.385-.427.677-.922.874-1.485a5.349 5.349 0 0 0 .313-1.875ZM121.232 24h-3.235v-1.344c-.625.552-1.255.974-1.89 1.266-.636.291-1.36.437-2.172.437a6.08 6.08 0 0 1-2.609-.562 6.26 6.26 0 0 1-2.079-1.563c-.572-.677-1.026-1.484-1.359-2.422-.323-.937-.484-1.963-.484-3.078 0-1.104.161-2.125.484-3.062.333-.948.787-1.755 1.359-2.422a6.168 6.168 0 0 1 2.079-1.578 5.942 5.942 0 0 1 2.609-.578c.812 0 1.536.14 2.172.422.635.27 1.265.682 1.89 1.234V6.531h-2.812V3.61h6.047V24Zm-3.235-10.688c-.385-.427-.885-.75-1.5-.968-.604-.23-1.182-.344-1.734-.344-1.219 0-2.213.438-2.984 1.313-.761.874-1.141 2.015-1.141 3.421 0 1.407.38 2.542 1.141 3.407.771.864 1.765 1.297 2.984 1.297.552 0 1.13-.11 1.734-.329.615-.229 1.115-.557 1.5-.984v-6.813ZM139.747 12.89a5.57 5.57 0 0 0-1.188-.421 5.422 5.422 0 0 0-1.375-.156c-.718 0-1.395.109-2.031.328a4.382 4.382 0 0 0-1.625.953 4.42 4.42 0 0 0-1.078 1.61c-.25.634-.375 1.39-.375 2.265v3.625h3.266V24h-9.797v-2.906h3.297v-8.735h-3.297V9.438h6.531v3.656c.531-1.459 1.312-2.49 2.344-3.094 1.041-.604 2.276-.906 3.703-.906.448 0 .917.047 1.406.14.49.094.969.26 1.438.5l-1.219 3.157ZM152.902 7.547h-3.937V3.609h3.937v3.938ZM155.871 24h-9.781v-2.906h3.219v-8.735h-3.219V9.438h6.453v11.656h3.328V24ZM175.558 23.844c0 1-.172 1.89-.515 2.672a5.546 5.546 0 0 1-1.454 1.984 6.247 6.247 0 0 1-2.187 1.234c-.833.292-1.766.438-2.797.438-2.531 0-4.693-.766-6.484-2.297l1.531-2.5c1.489 1.281 3.141 1.922 4.953 1.922 1.115 0 2.01-.276 2.688-.828.687-.542 1.031-1.396 1.031-2.563v-1.562c-.667.573-1.308 1-1.922 1.281-.615.27-1.328.406-2.141.406a5.815 5.815 0 0 1-2.609-.593 6.526 6.526 0 0 1-2.078-1.61 8.038 8.038 0 0 1-1.36-2.39 8.546 8.546 0 0 1-.484-2.891c0-1.021.161-1.985.484-2.89.334-.917.787-1.71 1.36-2.376a6.337 6.337 0 0 1 2.078-1.594 5.815 5.815 0 0 1 2.609-.593c.813 0 1.537.14 2.172.422.636.27 1.266.682 1.891 1.234V9.437h3.234v14.407Zm-3.234-10.532c-.386-.427-.886-.75-1.5-.968a4.962 4.962 0 0 0-1.766-.344c-1.219 0-2.208.427-2.969 1.281-.75.854-1.125 1.943-1.125 3.266 0 .656.099 1.265.297 1.828.209.552.49 1.031.844 1.438.365.406.797.729 1.297.968.51.23 1.062.344 1.656.344.573 0 1.162-.115 1.766-.344.614-.24 1.114-.573 1.5-1v-6.468ZM180.636 9.438h3.234v9c0 1.125.214 1.906.641 2.343.427.438 1.046.657 1.859.657 1.187 0 2.161-.485 2.922-1.454.76-.968 1.14-2.307 1.14-4.015V9.438h3.235V24h-3.235v-3.64c-.322 1.25-.921 2.229-1.796 2.937-.875.708-1.954 1.062-3.235 1.062-1.489 0-2.656-.484-3.5-1.453-.844-.979-1.265-2.468-1.265-4.468v-9ZM200.947 17.953c.157 1 .631 1.834 1.422 2.5.802.656 1.875.985 3.219.985 1.052 0 1.964-.162 2.734-.485a6.598 6.598 0 0 0 2.016-1.312l1.656 2.28c-.937.938-1.932 1.579-2.984 1.923-1.042.343-2.182.515-3.422.515-1.125 0-2.172-.187-3.141-.562a7.662 7.662 0 0 1-2.515-1.563 7.399 7.399 0 0 1-1.672-2.406c-.396-.927-.594-1.958-.594-3.094 0-1.104.183-2.12.547-3.047a7.236 7.236 0 0 1 1.563-2.421 7.007 7.007 0 0 1 2.421-1.594c.938-.386 1.974-.578 3.11-.578 1.177 0 2.245.203 3.203.61a6.628 6.628 0 0 1 2.453 1.733c.688.76 1.224 1.693 1.609 2.797.386 1.094.579 2.334.579 3.72h-12.204Zm8.547-2.844c-.166-.937-.651-1.687-1.453-2.25-.802-.572-1.713-.859-2.734-.859a4.656 4.656 0 0 0-2.75.86c-.813.562-1.302 1.312-1.469 2.25h8.406ZM230.259 19.64c0 .948-.213 1.72-.64 2.313a4.814 4.814 0 0 1-1.657 1.438 6.976 6.976 0 0 1-2.25.75c-.822.146-1.63.218-2.421.218-1.323 0-2.641-.192-3.954-.578-1.312-.385-2.447-.89-3.406-1.515l1.344-2.657c1.146.667 2.193 1.141 3.141 1.422.958.271 1.916.407 2.875.407 1.302 0 2.25-.136 2.843-.407.594-.281.891-.666.891-1.156a.778.778 0 0 0-.25-.594c-.167-.156-.443-.297-.828-.422a11.482 11.482 0 0 0-1.531-.39 41.507 41.507 0 0 0-2.344-.422 24.194 24.194 0 0 1-2.141-.453 6.354 6.354 0 0 1-1.765-.782 3.977 3.977 0 0 1-1.235-1.265c-.302-.51-.453-1.151-.453-1.922 0-.781.198-1.458.594-2.031a4.87 4.87 0 0 1 1.578-1.438 7.412 7.412 0 0 1 2.203-.812 12.225 12.225 0 0 1 5.766.203c1.083.292 2.031.713 2.843 1.266l-1.281 2.5c-.812-.51-1.604-.855-2.375-1.032a10.508 10.508 0 0 0-2.515-.281c-.386 0-.787.02-1.204.063a4.947 4.947 0 0 0-1.156.25 2.513 2.513 0 0 0-.89.484.93.93 0 0 0-.344.734c0 .386.338.703 1.015.953.688.24 1.855.48 3.5.72.896.124 1.714.286 2.454.483.739.188 1.375.448 1.906.782.531.323.943.744 1.234 1.265.302.51.453 1.146.453 1.907Z" fill="#FAF1DE"/><path d="M9.953 20.625 8.11 22.5l-8-8 8-8 1.844 1.89-6.11 6.11 6.11 6.125ZM27.265.656l2.406 1.188-11.968 24.093-2.407-1.187L27.265.656ZM243.719 16.5l-6.125-6.11 1.859-1.89 8 8-8 8-1.859-1.875 6.125-6.125Z" fill="#D0A677"/></svg>