<svg width="28" height="32" fill="none" xmlns="http://www.w3.org/2000/svg"><g clip-path="url(#a)"><path d="M25 2H3a3 3 0 0 0-3 3v22a3 3 0 0 0 3 3h8.578v-9.52H7.641V16h3.937v-3.415c0-3.884 2.313-6.03 5.855-6.03 1.696 0 3.47.303 3.47.303v3.812h-1.955c-1.925 0-2.526 1.195-2.526 2.42V16h4.299l-.688 4.48h-3.611V30H25a3 3 0 0 0 3-3V5a3 3 0 0 0-3-3Z" fill="url(#b)"/></g><defs><linearGradient id="b" x1="14" y1="2" x2="14" y2="30" gradientUnits="userSpaceOnUse"><stop stop-color="#A575BD"/><stop offset="1" stop-color="#3D1357"/></linearGradient><clipPath id="a"><path fill="#fff" d="M0 0h28v32H0z"/></clipPath></defs></svg>