<svg width="32" height="32" fill="none" xmlns="http://www.w3.org/2000/svg"><path d="M32 16c0 8.837-7.163 16-16 16S0 24.837 0 16 7.163 0 16 0s16 7.163 16 16Z" fill="#3D1357"/><path d="M18.73 7.042c-.638-.172-1.301.176-1.485.774l-4.8 15.75c-.184.598.187 1.22.825 1.392.637.172 1.301-.176 1.485-.773l4.8-15.75c.184-.598-.188-1.22-.825-1.393Zm3.022 4.223a1.078 1.078 0 0 0 0 1.592L25.102 16l-3.353 3.143a1.078 1.078 0 0 0 0 1.593c.468.44 1.23.44 1.698 0l4.2-3.938a1.078 1.078 0 0 0 0-1.592l-4.2-3.938a1.26 1.26 0 0 0-1.698 0l.003-.003Zm-11.5 0a1.26 1.26 0 0 0-1.7 0l-4.2 3.937a1.078 1.078 0 0 0 0 1.593l4.2 3.937c.47.44 1.23.44 1.7 0a1.078 1.078 0 0 0 0-1.592L6.898 16l3.352-3.143a1.078 1.078 0 0 0 0-1.592Z" fill="#FBFF2F"/></svg>