<svg width="32" height="32" fill="none" xmlns="http://www.w3.org/2000/svg"><path d="M32 16a16 16 0 1 1-32 0 16 16 0 0 1 32 0Z" fill="#3D1357"/><path d="M18.7 7c-.6-.1-1.3.2-1.5.8l-4.8 15.8c-.1.6.2 1.2.9 1.4.6.1 1.3-.2 1.5-.8l4.8-15.8c.1-.6-.2-1.2-.9-1.4Zm3 4.3a1 1 0 0 0 0 1.6l3.4 3.1-3.4 3.1a1 1 0 0 0 0 1.6c.5.5 1.3.5 1.7 0l4.2-3.9a1 1 0 0 0 0-1.6l-4.2-4a1.3 1.3 0 0 0-1.7 0Zm-11.4 0a1.3 1.3 0 0 0-1.7 0l-4.2 3.9a1 1 0 0 0 0 1.6l4.2 4c.4.4 1.2.4 1.7 0a1 1 0 0 0 0-1.7L6.9 16l3.3-3.1a1 1 0 0 0 0-1.6Z" fill="#FBFF2F"/></svg>