<svg width="76" height="67" fill="none" xmlns="http://www.w3.org/2000/svg"><path d="M44.003 26.355c0-2.892-2.058-4.488-5.673-4.488h-6.65v9.317h5.608c4.327-.013 6.715-1.74 6.715-4.829Zm24.212-1.675c-1.253-4.043-1.438-9.003-1.293-12.837.145-3.991-2.995-7.655-7.217-7.655H16.322c-4.236 0-7.363 3.677-7.218 7.655.132 3.834-.04 8.794-1.293 12.837-1.267 4.057-3.39 6.622-6.887 6.949v3.73c3.483.326 5.62 2.891 6.887 6.948C9.065 46.35 9.25 51.31 9.104 55.144 8.96 59.135 12.1 62.8 16.322 62.8h43.37c4.235 0 7.362-3.677 7.217-7.655-.132-3.834.04-8.794 1.293-12.837 1.267-4.057 3.391-6.622 6.874-6.949v-3.73c-3.47-.326-5.607-2.891-6.86-6.948ZM39.61 49.085H26.692V17.902h12.852c5.713 0 9.46 3.062 9.46 7.773 0 3.31-2.52 6.268-5.74 6.778v.17c4.381.471 7.323 3.481 7.323 7.63 0 5.508-4.13 8.832-10.977 8.832Zm-1.32-14.224h-6.61v10.26h6.9c4.513 0 6.901-1.794 6.901-5.17 0-3.363-2.454-5.09-7.19-5.09Z" fill="url(#a)"/><defs><linearGradient id="a" x1="38" y1="4.188" x2="38" y2="62.799" gradientUnits="userSpaceOnUse"><stop stop-color="#EBD7BE"/><stop offset="1" stop-color="#C99965"/></linearGradient></defs></svg>