<svg width="58" height="67" fill="none" xmlns="http://www.w3.org/2000/svg"><path d="M51.786 4.188H6.214C2.784 4.188 0 7 0 10.468v46.063C0 60 2.783 62.813 6.214 62.813h45.572c3.43 0 6.214-2.814 6.214-6.282V10.47C58 7 55.217 4.188 51.786 4.188ZM31.563 49.91c0 5.705-3.314 8.31-8.143 8.31-4.363 0-6.887-2.278-8.182-5.039l4.44-2.709c.855 1.532 1.632 2.827 3.51 2.827 1.786 0 2.925-.707 2.925-3.468V31.105h5.45V49.91Zm12.895 8.31c-5.062 0-8.337-2.435-9.93-5.628l4.44-2.59c1.166 1.923 2.694 3.35 5.373 3.35 2.253 0 3.703-1.14 3.703-2.722 0-1.885-1.476-2.552-3.974-3.665l-1.36-.588c-3.935-1.689-6.538-3.822-6.538-8.31 0-4.135 3.12-7.276 7.975-7.276 3.47 0 5.956 1.217 7.742 4.41l-4.246 2.748c-.932-1.688-1.942-2.355-3.509-2.355-1.592 0-2.602 1.02-2.602 2.355 0 1.649 1.01 2.316 3.353 3.35l1.36.59c4.635 2.001 7.237 4.056 7.237 8.662 0 4.947-3.858 7.668-9.024 7.668Z" fill="url(#a)"/><defs><linearGradient id="a" x1="29" y1="4.188" x2="29" y2="62.813" gradientUnits="userSpaceOnUse"><stop stop-color="#EBD7BE"/><stop offset="1" stop-color="#C99965"/></linearGradient></defs></svg>