<svg width="28" height="32" fill="none" xmlns="http://www.w3.org/2000/svg"><path d="M26 1.938H1.994C.894 1.938 0 2.844 0 3.955V27.92c0 1.112.894 2.018 1.994 2.018H26c1.1 0 2-.906 2-2.018V3.956c0-1.112-.9-2.018-2-2.018Zm-17.538 24h-4.15V12.575H8.47v13.363h-.006ZM6.388 10.75a2.407 2.407 0 0 1 0-4.813 2.411 2.411 0 0 1 2.406 2.407 2.403 2.403 0 0 1-2.407 2.406Zm17.63 15.188h-4.15v-6.5c0-1.55-.03-3.544-2.155-3.544-2.163 0-2.494 1.687-2.494 3.431v6.613h-4.15V12.575h3.981V14.4h.056c.556-1.05 1.913-2.156 3.932-2.156 4.2 0 4.98 2.768 4.98 6.369v7.325Z" fill="url(#a)"/><defs><linearGradient id="a" x1="14" y1="1.938" x2="14" y2="29.938" gradientUnits="userSpaceOnUse"><stop stop-color="#A575BD"/><stop offset="1" stop-color="#3D1357"/></linearGradient></defs></svg>