<?xml version="1.0" encoding="utf-8"?>
<!-- Generator: Adobe Illustrator 27.5.0, SVG Export Plug-In . SVG Version: 6.00 Build 0)  -->
<svg version="1.1" xmlns="http://www.w3.org/2000/svg" xmlns:xlink="http://www.w3.org/1999/xlink" x="0px" y="0px"
	 viewBox="0 0 500 500" style="enable-background:new 0 0 500 500;" xml:space="preserve">
<g id="BACKGROUND">
	<g>
		<rect style="fill:#A4A4E4;" width="500" height="500"/>
		
			<ellipse transform="matrix(0.7071 -0.7071 0.7071 0.7071 -103.2358 249.8684)" style="fill:#E3E3F7;" cx="250" cy="249.551" rx="205.068" ry="205.068"/>
	</g>
</g>
<g id="OBJECTS">
	<g>
		<g>
			<g>
				<g>
					<g>
						<path style="fill:#1E1E77;" d="M194.811,440.37c0-4.089-3.326-7.412-7.412-7.412h-86.974c-4.086,0-7.412,3.324-7.412,7.412
							v6.199h-4.145v-6.199c0-6.375,5.184-11.557,11.557-11.557H187.4c6.372,0,11.552,5.183,11.552,11.557v6.199h-4.14V440.37z"/>
						<g>
							<path style="fill:#1E1E77;" d="M191.888,454.247c-3.899,0-7.065-3.165-7.065-7.066h14.129
								C198.952,451.082,195.791,454.247,191.888,454.247z"/>
							<path style="fill:#2F2FA7;" d="M191.888,440.116c3.903,0,7.064,3.16,7.064,7.065h-14.129
								C184.822,443.276,187.989,440.116,191.888,440.116z"/>
						</g>
						<g>
							<rect x="167.438" y="429.33" style="fill:#1E1E77;" width="4.141" height="17.239"/>
							<g>
								<path style="fill:#1E1E77;" d="M164.517,454.247c-3.903,0-7.064-3.165-7.064-7.066h14.126
									C171.579,451.082,168.419,454.247,164.517,454.247z"/>
								<path style="fill:#2F2FA7;" d="M164.517,440.116c3.902,0,7.062,3.16,7.062,7.065h-14.126
									C157.453,443.276,160.614,440.116,164.517,440.116z"/>
							</g>
						</g>
						<g>
							<rect x="116.334" y="429.33" style="fill:#1E1E77;" width="4.143" height="17.239"/>
							<g>
								<path style="fill:#1E1E77;" d="M113.413,454.247c-3.901,0-7.065-3.165-7.065-7.066h14.129
									C120.477,451.082,117.312,454.247,113.413,454.247z"/>
								<path style="fill:#2F2FA7;" d="M113.413,440.116c3.899,0,7.065,3.16,7.065,7.065h-14.129
									C106.348,443.276,109.511,440.116,113.413,440.116z"/>
							</g>
						</g>
						<g>
							<path style="fill:#1E1E77;" d="M85.981,454.247c-3.901,0-7.065-3.165-7.065-7.066h14.127
								C93.044,451.082,89.885,454.247,85.981,454.247z"/>
							<path style="fill:#2F2FA7;" d="M85.981,440.116c3.903,0,7.063,3.16,7.063,7.065H78.917
								C78.917,443.276,82.081,440.116,85.981,440.116z"/>
						</g>
					</g>
					<g>
						<g>
							<path style="fill-rule:evenodd;clip-rule:evenodd;fill:#1E1E77;" d="M114.546,361.959c0.009,7.239,7.132,7.624,15.58,7.624
								c8.72,0,18.05,0,26.85,0c6.814,0,12.618-0.18,14.587-4.638c0.185-0.416,0.439-1.113,0.499-1.66
								c0.081-0.773,0.286-1.153-0.499-1.326c-0.255-0.055-0.515-0.167-0.662-0.164
								C152.993,362.199,132.631,362.135,114.546,361.959z"/>
						</g>
						<path style="fill:#1E1E77;" d="M136.339,434.463c0,2.216,1.793,4.007,4.004,4.007h6.205c2.211,0,4.003-1.791,4.003-4.007
							v-34.998c0-2.208-1.792-4.002-4.003-4.002h-6.205c-2.211,0-4.004,1.793-4.004,4.002V434.463z"/>
						<rect x="140.137" y="374.486" style="fill:#1E1E77;" width="6.559" height="23.48"/>
						<rect x="136.107" y="369.584" style="fill:#1E1E77;" width="14.445" height="6.171"/>
					</g>
				</g>
				<g>
					<g>
						<path style="fill-rule:evenodd;clip-rule:evenodd;fill:#CECEF4;" d="M158.182,237.648c-2.269-0.295-6.396,0-9.449,0
							c-18.209,0-37.146,0-55.689,0c-3.038,0-5.81-0.431-7.959,0.334c-1.922,0.687-3.693,2.277-4.307,3.977
							c-0.722,2.001-0.203,5.024,0,7.459c2.326,28.04,4.687,53.717,6.96,81.716c0.804,9.83,4.369,17.188,9.614,22.536
							c2.741,2.801,5.894,5.11,9.778,6.466c3.967,1.384,8.983,1.4,14.423,1.659c9.243,0.443,20.776,0.989,31.16,0.989
							c15.033,0,33.448,0.102,47.238-0.161c2.616-0.05,5.479,0,8.12,0c2.758,0,5.291,0.392,7.459-0.166
							c2.45-0.636,4.294-2.337,4.971-4.639c1.021-3.454-0.611-7.194-3.811-8.619c-1.99-0.893-5.218-0.725-8.285-0.832
							c-5.692-0.197-11.698-0.391-17.572-0.66c-3.718-0.175-7.73-0.197-10.109-1.325c-3.226-1.532-5.657-4.615-7.126-8.126
							c-1.475-3.509-1.685-7.76-2.156-12.924c-2.375-26.053-4.229-50.637-6.631-76.741c-0.214-2.353-0.33-4.666-0.993-6.466
							C163.086,240.15,161.677,238.111,158.182,237.648z"/>
					</g>
					<g>
						<path style="fill-rule:evenodd;clip-rule:evenodd;fill:#A4A4E4;" d="M88.404,237.648c-2.977-0.387-6.587,1.434-7.627,4.311
							c-1.05,2.915,0.051,7.499,0.333,10.775c2.164,25.282,4.403,50.388,6.464,75.247c0.317,3.846,0.546,7.278,1.326,10.441
							c2.143,8.717,7.641,16.451,14.752,20.226c2.49,1.318,5.536,2.185,9.115,2.651c6.834,0.882,14.617,0.844,22.045,1.159
							c3.589,0.148,7.83,0.807,10.939,0c3.022-0.78,5.415-3.358,5.305-6.963c-0.093-3.059-1.818-5.257-4.145-6.296
							c-2.038-0.913-5.559-0.733-8.287-0.832c-5.974-0.207-11.565-0.383-17.572-0.66c-3.379-0.157-6.894-0.197-9.113-0.996
							c-3.195-1.149-5.802-3.965-7.126-6.299c-3.301-5.795-3.332-15.698-3.981-23.532c-1.977-23.871-3.959-45.554-5.965-69.616
							C94.431,242.035,93.442,238.314,88.404,237.648z"/>
					</g>
				</g>
			</g>
			<g>
				<g>
					<g>
						<g>
							<g>
								<polygon style="fill-rule:evenodd;clip-rule:evenodd;fill:#E2B1CE;" points="265.87,416.138 287.445,415.794 
									290.242,442.699 264.153,442.699 								"/>
								<path style="fill-rule:evenodd;clip-rule:evenodd;fill:#BB78A2;" d="M288.305,423.26
									c-9.776,5.898-22.839-0.945-22.839-0.945L288.305,423.26z"/>
							</g>
							<g>
								<path style="fill-rule:evenodd;clip-rule:evenodd;fill:#AF5091;" d="M289.358,428.994c-1.029,0.059-4.679-0.027-6.032,1.307
									c-1.403,1.377-1.038,3.635-1.14,6.514c-6.91-0.318-8.73-7.136-17.933-5.706c-1.152,7.005-1.204,15.104-1.146,23.32
									c18.478,0.379,37.662,0.052,56.418,0.161c-0.381-1.872-0.895-3.584-1.633-4.889c-2.248-3.979-5.991-5.921-10.273-7.336
									c-5.77-1.913-12.534-3.669-15.815-8.482C290.891,432.545,290.256,430.923,289.358,428.994z"/>
								<g>
									<path style="fill-rule:evenodd;clip-rule:evenodd;fill:#2F2FA7;" d="M285.805,437.385c0.476,1.069,3.016-0.201,4.936-0.503
										c1.124-0.181,3.824-0.085,4.034-1.117c0.367-1.852-3.686-1.772-5.396-1.338
										C287.722,434.848,285.108,435.82,285.805,437.385z"/>
									<path style="fill-rule:evenodd;clip-rule:evenodd;fill:#2F2FA7;" d="M288.546,441.548c0.962,1.305,3.643-0.238,5.542-0.651
										c1.002-0.22,2.119-0.36,3.095-0.487c0.938-0.125,2.66-0.019,2.612-0.818c-0.104-1.717-2.917-1.851-4.889-1.631
										C292.405,438.241,287.121,439.616,288.546,441.548z"/>
								</g>
							</g>
						</g>
						<g>
							<g>
								<polygon style="fill-rule:evenodd;clip-rule:evenodd;fill:#E2B1CE;" points="220.834,416.138 242.408,415.794 
									245.204,442.699 219.116,442.699 								"/>
								<path style="fill-rule:evenodd;clip-rule:evenodd;fill:#BB78A2;" d="M243.271,423.26
									c-9.777,5.898-22.841-0.945-22.841-0.945L243.271,423.26z"/>
							</g>
							<g>
								<path style="fill-rule:evenodd;clip-rule:evenodd;fill:#C167A0;" d="M244.322,428.994c-1.03,0.059-4.68-0.027-6.03,1.307
									c-1.406,1.377-1.039,3.635-1.142,6.514c-6.908-0.318-8.73-7.136-17.932-5.706c-1.152,7.005-1.204,15.104-1.146,23.32
									c18.477,0.379,37.661,0.052,56.417,0.161c-0.382-1.872-0.894-3.584-1.632-4.889c-2.25-3.979-5.993-5.921-10.273-7.336
									c-5.771-1.913-12.535-3.669-15.816-8.482C245.855,432.545,245.22,430.923,244.322,428.994z"/>
								<g>
									<path style="fill-rule:evenodd;clip-rule:evenodd;fill:#2F2FA7;" d="M240.769,437.385c0.474,1.069,3.016-0.201,4.935-0.503
										c1.123-0.181,3.824-0.085,4.034-1.117c0.367-1.852-3.686-1.772-5.397-1.338
										C242.686,434.848,240.073,435.82,240.769,437.385z"/>
									<path style="fill-rule:evenodd;clip-rule:evenodd;fill:#2F2FA7;" d="M243.508,441.548c0.962,1.305,3.642-0.238,5.542-0.651
										c1.003-0.22,2.118-0.36,3.097-0.487c0.936-0.125,2.661-0.019,2.613-0.818c-0.106-1.717-2.921-1.851-4.893-1.631
										C247.369,438.241,242.084,439.616,243.508,441.548z"/>
								</g>
							</g>
						</g>
						<g>
							<g>
								<path style="fill-rule:evenodd;clip-rule:evenodd;fill:#2F2FA7;" d="M247.173,346.057
									c0.601,12.685-0.266,25.642-0.266,38.665c0,12.977,7.937,25.943,7.599,38.703l36.763,0.733c0,0,0.09-32.613,0-49.133
									c-0.048-8.171-0.533-16.531-1.199-24.309c-0.66-7.738-1.838-15.051-4.383-21.077c-5.183-12.293-14.767-19.365-27.758-23.92
									c-27.192-9.541-80.004-13.204-83.558-14.214c-11.802,3.007-23.514,2.728-24.022,2.83c-1.011,0.209-1.643,2.181-1.995,3.367
									c-2.015,6.812-2.026,16.282-0.798,23.788c0.49,2.983,0.956,5.981,1.859,8.662c1.836,5.458,4.961,9.097,9.565,11.642
									c4.629,2.558,10.423,3.529,17,4.263c12.751,1.43,15.189,0.907,29.224,0.907C219.525,346.964,232.648,346.25,247.173,346.057
									z"/>
								<g>
									<defs>
										<path id="SVGID_1_" d="M247.173,346.057c0.601,12.685-0.266,25.642-0.266,38.665c0,12.977,6.626,25.933,6.287,38.693
											c0,0,22.874,0.707,38.075,0.742c1.172-15.845,0.09-32.613,0-49.133c-0.048-8.171-0.533-16.531-1.199-24.309
											c-0.66-7.738-1.838-15.051-4.383-21.077c-5.183-12.293-14.767-19.365-27.758-23.92
											c-27.192-9.541-80.004-13.204-83.558-14.214c-11.802,3.007-23.514,2.728-24.022,2.83
											c-1.011,0.209-1.643,2.181-1.995,3.367c-2.015,6.812-2.026,16.282-0.798,23.788c0.49,2.983,0.956,5.981,1.859,8.662
											c1.836,5.458,4.961,9.097,9.565,11.642c4.629,2.558,10.423,3.529,17,4.263c12.751,1.43,15.189,0.907,29.224,0.907
											C219.525,346.964,232.648,346.25,247.173,346.057z"/>
									</defs>
									<clipPath id="SVGID_00000160186395287010981430000001289124399785058191_">
										<use xlink:href="#SVGID_1_"  style="overflow:visible;"/>
									</clipPath>
									
										<path style="clip-path:url(#SVGID_00000160186395287010981430000001289124399785058191_);fill-rule:evenodd;clip-rule:evenodd;fill:#1E1E77;" d="
										M219.502,308.559c8.626,4.267,16.055,9.781,20.187,18.234c1.365,2.796,2.19,5.913,3.055,9.569
										c1.571,6.638,2.777,13.862,3.719,21.594c1.852,15.217,1.476,31.505,0.667,48.232c-0.273,5.526-0.965,11.604-1.196,17.714
										c-0.086,2.222,0.254,4.466,1.196,5.042c1.334,0.824,5.535,0.114,7.301,0.13c2.45,0.02,6.042,0.741,7.571-0.391
										c1.115-0.822,1.321-3.227,1.463-5.557c0.382-6.388,0.502-13.714,0.794-20.043c0.42-8.99,0.93-17.747,0.93-26.766
										c0-8.951-0.739-17.676-2.124-25.602c-1.395-7.979-3.349-15.376-6.243-21.594c-14.461-31.075-72.673-32.845-80.35-33.746
										C175.796,295.299,216.638,307.145,219.502,308.559z"/>
								</g>
							</g>
							<g>
								<path style="fill-rule:evenodd;clip-rule:evenodd;fill:#2F2FA7;" d="M210.736,348.303
									c0.607,12.314-0.264,24.901-0.264,37.548c0,12.608-0.291,24.039-0.629,36.43c0,0,29.843,1.103,45.045,1.144
									c0,0,0.032-30.943-0.054-46.99c-0.046-7.937-0.531-16.053-1.197-23.614c-0.661-7.516-1.84-14.618-4.385-20.472
									c-5.183-11.941-14.923-18.418-27.755-23.237c-9.218-3.459-51.195-12.618-54.75-13.595
									c-11.805,2.917-51.008-4.012-51.008-4.012c-1.013,0.201-3.469,8.669-3.817,9.819c-2.015,6.622-2.028,15.818-0.797,23.109
									c0.487,2.901,0.954,5.814,1.859,8.419c1.836,5.296,4.959,8.831,9.563,11.301c4.626,2.487,10.422,3.431,17,4.149
									c12.748,1.381,28.064,0.876,42.101,0.876C195.964,349.179,196.212,348.482,210.736,348.303z"/>
								<path style="fill:#1E1E77;" d="M210.473,385.851c0-12.647,0.871-25.234,0.264-37.548c-14.524,0.18-14.773,0.876-29.09,0.876
									c-14.037,0-29.353,0.505-42.101-0.876c-6.577-0.718-12.373-1.662-17-4.149c-4.603-2.47-7.727-6.005-9.563-11.301
									c-0.905-2.605-1.372-5.518-1.859-8.419c-1.23-7.291-1.217-16.487,0.797-23.109c0.348-1.15,3.595-11.552,4.603-11.759
									c0.506-0.102,3.945,0.97,3.945,0.97c-0.034,1.149-1.524,6.432-1.644,12.173c-0.073,3.569,0.05,7.122,0.268,10.549
									c0.217,3.393,0.377,6.757,1.192,9.671c1.782,6.342,8.012,10.328,14.741,12.432c7.206,2.255,15.628,3.007,24.175,3.517
									c17.768,1.065,35.603,1.94,53.123,2.636c9.871,0.396,7.775,15.767,7.844,19.972c0.217,13.423-0.532,24.735-0.532,38.809
									c0,5.816-0.132,13.4-0.799,19.094c-0.178,1.561-0.274,2.64-0.397,3.189l-8.597-0.299
									C210.181,409.89,210.473,398.459,210.473,385.851z"/>
							</g>
						</g>
					</g>
					<g>
						<g>
							<g>
								<path style="fill-rule:evenodd;clip-rule:evenodd;fill:#2F2FA7;" d="M285.288,186.35c-0.105,2.677,1.974,4.931,4.641,5.039
									l16.146-1.782c2.666,0.104,4.914-1.974,5.021-4.651l1.335-34.006c0.102-2.674-1.972-4.929-4.643-5.038l-16.141,1.779
									c-2.669-0.106-4.918,1.978-5.024,4.65L285.288,186.35z"/>
								<path style="fill:#1E1E77;" d="M291.181,147.698c-1.169,0.865-1.952,2.228-2.013,3.801l-1.365,34.832
									c-0.093,2.272,1.354,4.24,3.407,4.914l-1.28,0.143c-2.669-0.107-4.748-2.362-4.641-5.039l1.334-34.008
									C286.721,149.823,288.721,147.835,291.181,147.698"/>
								<path style="fill:#FFFFFF;" d="M309.705,151.502c0.486-0.105,0.833-0.557,0.794-1.07c-0.041-0.562-0.528-0.986-1.088-0.943
									l-1.642,0.114c-0.565,0.041-0.983,0.532-0.941,1.096c0.039,0.561,0.526,0.984,1.087,0.943l1.643-0.119
									C309.606,151.518,309.656,151.512,309.705,151.502"/>
								<path style="fill:#FFFFFF;" d="M305.728,151.727c0.486-0.103,0.835-0.557,0.798-1.068c-0.041-0.563-0.528-0.985-1.09-0.945
									l-0.296,0.02c-0.562,0.038-0.986,0.531-0.944,1.091c0.041,0.563,0.531,0.99,1.092,0.946l0.297-0.021
									C305.634,151.746,305.68,151.742,305.728,151.727"/>
							</g>
							<path style="fill-rule:evenodd;clip-rule:evenodd;fill:#E2B1CE;" d="M300.381,176.74c1.812,0.064,3.171-0.077,4.367,0.581
								c0.022,0.814-0.473,1.573-0.485,2.525c-0.037,2.817,1.771,5.769,3.537,6.89c0.04-0.002-0.897,7.976-0.897,7.976l3.802,10.09
								c16.104-11.573,10.646-28.116,8.562-34.788c-2.736-8.747-8.566-14.385-15.764-15.561c-0.668-0.109-2.364,0.393-2.425,1.201
								c-0.089,1.269,1.469,1.954,2.218,2.396c1.053,0.619,1.933,1.014,2.66,1.478c1.793,1.145,4.875,3.905,4.561,4.417
								c-0.262,0.423-2.255-0.66-3.325-0.965c-2.116-0.607-5.821-1.114-8.643,0.072c-0.832,0.348-1.811,1.231-1.668,1.915
								c0.285,1.378,4.542,1.144,5.685,1.268c2.214,0.244,5.662,1.098,5.444,1.67c-0.121,0.324-1.356-0.127-2.009-0.275
								c-1.762-0.403-4.477-0.846-6.876-0.155c-1.034,0.295-3.214,1.421-2.974,2.597c0.314,1.554,3.557,1.133,4.986,1.219
								c0.902,0.053,1.88,0.207,2.707,0.326c0.813,0.118,2.396,0.344,2.279,0.892c-0.091,0.443-0.91,0.19-1.335,0.122
								c-1.678-0.283-3.696-0.698-6.205,0.238c-0.916,0.338-2.969,1.603-2.436,2.917
								C296.552,176.781,299.237,176.698,300.381,176.74z"/>
							<path style="fill-rule:evenodd;clip-rule:evenodd;fill:#BB78A2;" d="M300.275,176.768c1.866,0.083,3.174,0.168,4.397,0.687
								c-0.101,0.338-0.299,0.993-0.388,1.585c-0.442,2.892,1.462,6.458,3.509,7.695c0.051-0.003,0.101,0,0.152-0.002
								c-0.647-1.257-1.552-2.577-1.973-4.246c-0.562-2.22-0.226-4.436,0.105-6.196c-1.735,0.014-7.964,0.581-9.086-2.484
								c-0.596,0.568-1.239,1.109-0.979,1.897C296.401,176.88,298.721,176.698,300.275,176.768z"/>
							<path style="fill-rule:evenodd;clip-rule:evenodd;fill:#BB78A2;" d="M304.366,154.615c-2.125-0.622-4.584,0.262-2.924,2.431
								c0.585,0.761,2.389,1.477,3.36,1.982c1.324,0.686,3.067,1.907,3.773,2.53c-0.886-1.271-1.967-1.955-3.294-2.882
								C303.711,157.576,300.987,155.609,304.366,154.615"/>
							<path style="fill-rule:evenodd;clip-rule:evenodd;fill:#BB78A2;" d="M298.48,164.099c-0.342-0.475-0.136-0.785,0.239-1.117
								c-1.49,0.494-2.661,1.978-1.535,2.709c0.889,0.577,2.533,0.49,4.124,0.527c1.68,0.038,3.592,0.423,4.687,0.67
								C304.192,165.934,299.935,166.103,298.48,164.099"/>
							<path style="fill-rule:evenodd;clip-rule:evenodd;fill:#BB78A2;" d="M297.299,168.343c-0.43,0.229-1.567,1.106-1.115,1.959
								c0.597,1.137,3.037,1.098,4.768,1.149c2.015,0.06,3.927,0.204,4.917,0.668c-0.797-1.265-6.136-0.905-8.386-2.622
								C297.088,169.156,297.059,168.722,297.299,168.343"/>
						</g>
						<g>
							<path style="fill-rule:evenodd;clip-rule:evenodd;fill:#C167A0;" d="M189.82,223.258c0.292,0.683,1.256,0.711,1.808,0.851
								c4.706,1.192,9.777,1.874,14.722,2.823c5.518,1.059,11.174,2.167,16.826,3.226c5.491,1.028,11.159,2.245,16.906,3.032
								c5.776,0.787,11.903,1.377,17.776,0.892c13.066-1.083,46.804-24.093,57.015-31.737c-1.891-5.481-4.541-10.725-7.116-15.371
								c-17.777,5.356-16.471,5.751-34.53,12.439c-4.351,1.612-8.751,3.184-13.152,4.733c-1.508,0.53-3.393,1.482-4.768,1.686
								c-1.197,0.179-2.805-0.463-4.539-0.828c-10.355-2.181-21.236-4.554-31.367-6.769c-8.542-1.869-18.106-3.513-27.466-4.385
								c-3.172-0.294-6.553-0.524-9.573-0.157c-0.196,0.023-0.428-0.028-0.605,0.093c-0.741,0.507-0.322,0.768-0.107,1.656
								c1.023,4.223,2.853,9.259,3.876,13.03C187.066,214.144,188.607,218.936,189.82,223.258z"/>
							<path style="fill-rule:evenodd;clip-rule:evenodd;fill:#9A466E;" d="M189.82,223.258c-0.139-0.49-0.28-0.987-0.426-1.493
								c-0.061-0.207-0.121-0.415-0.183-0.627c-0.089-0.303-0.177-0.609-0.269-0.918c-0.075-0.257-0.15-0.514-0.229-0.774
								c-0.072-0.245-0.145-0.493-0.22-0.741c-0.088-0.296-0.175-0.59-0.265-0.89l0,0c-0.852-2.858-1.776-5.941-2.699-9.343
								c-1.023-3.771-2.853-8.807-3.876-13.03c-0.214-0.888-0.634-1.15,0.107-1.656c0.177-0.121,0.409-0.07,0.605-0.093
								c1.709-0.208,3.534-0.222,5.372-0.143c8.617,10.211,7.707,25.366,32.781,32.685c5.535,1.615,10.993,2.951,16.678,4.099
								c5.715,1.154,11.795,2.133,17.685,2.02c9.393-0.178,30.095-10.92,45.005-19.562c-14.178,9.372-33.016,20.542-42.026,21.29
								c-5.873,0.486-12-0.105-17.776-0.892c-5.747-0.786-11.415-2.004-16.906-3.032c-5.652-1.059-11.308-2.168-16.826-3.226
								c-4.373-0.839-8.848-1.473-13.082-2.432c-0.392-0.086-1.192-0.24-1.93-0.452C190.788,223.944,190.067,223.834,189.82,223.258
								z"/>
							<g>
								<defs>
									<path id="SVGID_00000029031782369895759810000004611092238335928501_" d="M189.82,223.258
										c0.292,0.683,1.256,0.711,1.808,0.851c4.706,1.192,9.777,1.874,14.722,2.823c5.518,1.059,11.174,2.167,16.826,3.226
										c5.491,1.028,11.159,2.245,16.906,3.032c5.776,0.787,11.903,1.377,17.776,0.892c13.066-1.083,46.804-24.093,57.015-31.737
										c-1.891-5.481-4.541-10.725-7.116-15.371c-17.777,5.356-16.471,5.751-34.53,12.439c-4.351,1.612-8.751,3.184-13.152,4.733
										c-1.508,0.53-3.393,1.482-4.768,1.686c-1.197,0.179-2.805-0.463-4.539-0.828c-10.355-2.181-21.236-4.554-31.367-6.769
										c-8.542-1.869-18.106-3.513-27.466-4.385c-3.172-0.294-6.553-0.524-9.573-0.157c-0.196,0.023-0.428-0.028-0.605,0.093
										c-0.741,0.507-0.322,0.768-0.107,1.656c1.023,4.223,2.853,9.259,3.876,13.03
										C187.066,214.144,188.607,218.936,189.82,223.258z"/>
								</defs>
								<clipPath id="SVGID_00000119088829328838176130000010144289994556237959_">
									<use xlink:href="#SVGID_00000029031782369895759810000004611092238335928501_"  style="overflow:visible;"/>
								</clipPath>
								
									<path style="clip-path:url(#SVGID_00000119088829328838176130000010144289994556237959_);fill-rule:evenodd;clip-rule:evenodd;fill:#9A466E;" d="
									M251.114,202.763c1.699,4.139,4.762,8.113,7.434,11.532c0.799,1.021,1.53,2.823,3.104,2.397
									c0.449-0.994-0.227-2.308-0.641-3.435c-1.319-3.6-3.368-7.936-4.998-11.107
									C254.682,201.809,252.426,201.366,251.114,202.763z"/>
							</g>
						</g>
					</g>
					<path style="fill-rule:evenodd;clip-rule:evenodd;fill:#AF5091;" d="M110.451,314.848c8.913-0.844,19.186-2.143,29.381-5.605
						c18.762-6.373,25.695-12.434,35.05-17.775c-0.621-1.56-1.388-3.194-2.213-4.87c-0.756-1.536-1.937-3.215-2.293-4.675
						c-0.293-1.218,1.048-3.452,1.73-5.078c4.901-11.694,7.943-17.585,13.717-29.024c3.047-6.032,6.097-13.057,7.167-20.095
						c1.086-7.163,1.554-15.015-2.111-23.761c-3.557-8.484-10.075-13.491-16.656-15.064c-3.318-0.79-7.335-1.003-10.991-0.847
						c-1.98,0.088-3.993,0.466-6.051,0.937c-16.456,3.761-28.951,15.518-35.083,25.733c-2.803,4.667-5.069,9.656-7.073,14.576
						c-2.061,5.063-4.004,10.139-5.516,15.214c-1.554,5.218-2.545,10.676-3.513,16.141c-0.968,5.454-1.758,10.986-2.017,16.639
						C103.446,288.945,105.952,301.167,110.451,314.848z"/>
					<g>
						<g>
							<g>
								<path style="fill-rule:evenodd;clip-rule:evenodd;fill:#E2B1CE;" d="M173.646,133.046
									c-8.038-0.911-13.642,2.288-17.757,6.491c-3.645,3.718-6.229,7.091-7.028,13.021c-0.774,11.664,6.173,18.421,6.478,19.667
									c0.221,0.883-0.749,13.569-1.37,24.196c3.582,1.91,7.375,3.28,11.137,4.787c1.966,0.788,3.866,1.763,5.783,2.69
									c1.087-0.678,2.301-1.142,3.571-1.303c1.509-0.19,2.945,0.008,4.245,0.498c0.173-8.389,0.33-19.936,0.33-19.936
									c1.293-0.8,2.676-1.521,4.048-2.587c5.932-4.576,6.19-10.782,6.643-21.559C190.209,147.385,191.297,135.035,173.646,133.046
									z"/>
								<path style="fill:#BB78A2;" d="M179.034,183.157c-10.791,2.315-16.583-4.715-16.583-4.715s2.866,12.315,16.507,10.596
									L179.034,183.157z"/>
								<g>
									<path style="fill-rule:evenodd;clip-rule:evenodd;fill:#E2B1CE;" d="M146.617,160.076
										c-0.109,2.997,5.264,12.197,8.721,12.148c3.849-0.052,1.787-8.992,1.898-11.992c0.1-2.998-0.08-5.326-0.08-5.326
										c-2.436,0.584-6.276,0.226-7.427,0.615C147.128,156.41,146.689,157.999,146.617,160.076z"/>
									<g>
										<path style="fill:#BB78A2;" d="M155.875,164.853c0.069,0.005,0.124-0.003,0.186-0.011
											c0.402-0.089,0.657-0.479,0.574-0.873c-0.676-3.121-2.51-5.352-5.145-6.279c-0.388-0.137-0.817,0.07-0.954,0.442
											c-0.147,0.381,0.056,0.8,0.444,0.934c2.135,0.744,3.625,2.6,4.192,5.216C155.249,164.611,155.542,164.843,155.875,164.853
											z"/>
										<path style="fill:#BB78A2;" d="M150.865,164.794c0.368,0.018,0.697-0.248,0.761-0.617
											c0.215-1.344,1.192-2.445,2.759-3.093c0.375-0.155,0.551-0.588,0.391-0.96c-0.159-0.372-0.594-0.547-0.975-0.383
											c-2.048,0.857-3.352,2.354-3.651,4.216c-0.065,0.398,0.21,0.774,0.62,0.834
											C150.801,164.794,150.837,164.794,150.865,164.794z"/>
									</g>
								</g>
								<g>
									<g>
										<g>
											<path style="fill:#BB78A2;" d="M177.087,167.5c0.037,0.002,0.077,0.002,0.116,0.002c1.104-0.108,1.905-0.475,2.437-1.116
												c1.078-1.308,0.827-3.423,0.505-6.095c-0.205-1.706-0.43-3.63-0.353-5.663c0.006-0.374-0.288-0.694-0.667-0.697
												c-0.383-0.014-0.715,0.278-0.719,0.651c-0.081,2.137,0.153,4.119,0.363,5.873c0.274,2.261,0.509,4.223-0.198,5.083
												c-0.293,0.342-0.778,0.548-1.486,0.609c-0.389,0.043-0.658,0.364-0.629,0.742
												C176.484,167.226,176.76,167.472,177.087,167.5"/>
										</g>
										<g>
											<g>
												<path style="fill-rule:evenodd;clip-rule:evenodd;fill:#1E1E77;" d="M187.335,158.919
													c-0.037,1.031-0.71,1.859-1.492,1.82c-0.772-0.022-1.372-0.899-1.326-1.935c0.052-1.042,0.717-1.863,1.486-1.827
													C186.786,157,187.38,157.873,187.335,158.919"/>
											</g>
											<path style="fill-rule:evenodd;clip-rule:evenodd;fill:#1E1E77;" d="M180.748,150.575
												c-0.247,0.531,2.571,1.427,4.697,2.333c2.108,0.917,3.582,1.912,3.82,1.371c0.251-0.542-1.2-2.066-3.316-2.983
												C183.815,150.386,180.992,150.029,180.748,150.575z"/>
										</g>
										<g>
											<path style="fill-rule:evenodd;clip-rule:evenodd;fill:#1E1E77;" d="M176.226,150.255
												c0.164,0.568-2.758,1.063-4.99,1.673c-2.229,0.615-5.091,1.958-5.252,1.397c-0.159-0.572,2.753-2.447,4.988-3.06
												C173.208,149.653,176.064,149.686,176.226,150.255z"/>
											<path style="fill-rule:evenodd;clip-rule:evenodd;fill:#1E1E77;" d="M173.321,158.548
												c-0.035,1.042-0.713,1.885-1.5,1.852c-0.787-0.035-1.378-0.919-1.348-1.973c0.056-1.045,0.734-1.873,1.52-1.844
												C172.775,156.617,173.372,157.498,173.321,158.548"/>
										</g>
									</g>
								</g>
							</g>
							<g>
								<path style="fill-rule:evenodd;clip-rule:evenodd;fill:#1E1E77;" d="M191.902,141.013c1.941,0.414,3.475,1.155,4.281,2.575
									c2.675,4.696-2.537,10.919-6.289,11.944c-0.308-4.872-1.336-9.141-4.113-12.227c-3.2-3.553-8.572-6.129-15.052-4.973
									c0.051,5.04-2.033,7.912-4.778,10.381c-0.771,0.693-1.619,1.342-1.929,2.088c-0.718,1.73-0.216,4.726-0.266,7.4
									c-0.041,2.411,0.064,5.973-1.596,6.327c-0.95,0.204-1.729-0.8-2.138-1.352c-2.037-2.735-3.176-6.587-7.445-7.114
									c-1.246-0.154-2.768,0.3-3.919-0.056c-1.586-0.492-1.863-2.877-2.082-4.655c-0.726-5.981,0.138-11.367,3.227-14.503
									c2.072-2.103,6.046-4.278,9.667-4.097c0.531,0.028,1.146,0.238,1.622,0.158c0.605-0.107,1.198-0.815,1.915-1.427
									c4.037-3.46,10.42-5.457,17.537-5.706c3.967-0.137,8.636,0.841,11.033,2.932
									C194.56,131.312,195.255,136.884,191.902,141.013z"/>
								<path style="fill-rule:evenodd;clip-rule:evenodd;fill:#2F2FA7;" d="M156.993,135.361c-3.242,3.723-6.463,8.63-7.693,14.835
									C148.618,142.512,151.423,137.183,156.993,135.361z"/>
								<path style="fill-rule:evenodd;clip-rule:evenodd;fill:#2F2FA7;" d="M164.727,133.753c1.084-1.204,2.973-2.272,4.917-2.971
									c2.006-0.722,4.408-1.249,6.781-1.361c5.417-0.253,10.181,2.082,13.445,4.155c-3.545-1.504-9.1-2.476-14.557-2.318
									C171.204,131.373,167.362,132.43,164.727,133.753z"/>
								<path style="fill-rule:evenodd;clip-rule:evenodd;fill:#2F2FA7;" d="M174.721,134.158c8.071-0.406,14.381,4.02,16.999,9.496
									c-0.164-0.345,0.54,0.574-0.003,0.267C187.815,138.995,182.274,135.623,174.721,134.158z"/>
								<path style="fill-rule:evenodd;clip-rule:evenodd;fill:#2F2FA7;" d="M166.506,140.126c-0.815,3.797-2.826,7.549-7.305,8.095
									c-0.612-0.228,0.445-0.585,0.69-0.785C162.278,145.51,165.194,143.247,166.506,140.126z"/>
							</g>
							<path style="fill:#BB78A2;" d="M180.347,171.194c0,0-3.068,15.738-7.354-1.445L180.347,171.194z"/>
						</g>
						<g>
							<path style="fill-rule:evenodd;clip-rule:evenodd;fill:#FFFFFF;" d="M179.078,187.668c0.106-0.035,5.535,3.935,4.451,8.506
								c-0.411,1.738-1.752,4.155-2.865,5.988c-0.534,0.875-2.605,4.719-4.021,4.897c-1.834,0.231-3.525-4.187-3.525-4.187
								L179.078,187.668z"/>
							<path style="fill-rule:evenodd;clip-rule:evenodd;fill:#FFFFFF;" d="M154.485,186.178c-0.038-0.096,0.034-0.117,0.111-0.134
								c6.223,6.054,18.326,16.288,18.522,16.827c0.17,0.452,0.091,2.549,0.036,3.348c-0.415,5.939-16.52-4.533-20.463-7.352
								c-0.824-0.591-1.778-1.288-2.73-2.169c-0.882-0.819-2.065-1.817-2.17-2.838C147.685,192.778,148.997,189.964,154.485,186.178
								z"/>
						</g>
					</g>
				</g>
				<g>
					<g>
						<g>
							<rect x="339.003" y="273.412" style="fill:#8080C9;" width="85.19" height="16.082"/>
							<g>
								<g>
									<polygon style="fill:#BCBCEA;" points="233.761,283.613 233.761,454.561 240.499,454.561 245.638,281.61 									"/>
									<polygon style="fill:#8080C9;" points="233.761,281.61 233.761,307.137 244.833,307.137 245.638,281.61 									"/>
								</g>
								<g>
									<polygon style="fill:#BCBCEA;" points="178.746,283.613 178.746,454.561 185.485,454.561 190.623,281.61 									"/>
									<polygon style="fill:#8080C9;" points="178.746,281.61 178.746,307.137 189.818,307.137 190.623,281.61 									"/>
								</g>
								<g>
									<polygon style="fill:#BCBCEA;" points="363.26,283.67 351.391,281.673 356.531,454.483 363.26,454.483 									"/>
									<polygon style="fill:#8080C9;" points="352.202,307.177 351.395,281.67 363.264,283.67 363.264,307.177 									"/>
								</g>
								<g>
									<polygon style="fill:#BCBCEA;" points="424.19,283.67 412.32,281.673 417.462,454.483 424.19,454.483 									"/>
									<polygon style="fill:#8080C9;" points="413.131,307.177 412.324,281.67 424.192,283.67 424.192,307.177 									"/>
								</g>
								<g>
									<rect x="178.696" y="273.412" style="fill:#8080C9;" width="160.307" height="16.082"/>
									<path style="fill:#8080C9;" d="M433.083,271.258c0,1.189-0.962,2.155-2.15,2.155H174.762c-1.189,0-2.154-0.965-2.154-2.155
										c0-1.193,0.965-2.154,2.154-2.154h256.171C432.122,269.103,433.083,270.065,433.083,271.258"/>
								</g>
							</g>
						</g>
						<g>
							<path style="fill-rule:evenodd;clip-rule:evenodd;fill:#1E1E77;" d="M348.585,265.733c0,1.828-1.469,3.313-3.281,3.313
								h-56.738c-1.81,0-3.28-1.485-3.28-3.313c0-1.833,1.47-3.317,3.28-3.317h56.738
								C347.116,262.416,348.585,263.9,348.585,265.733"/>
							<g>
								<path style="fill:#1E1E77;" d="M411.76,219.102c-0.933-1.251-2.4-1.987-3.962-1.987h-63.884
									c-2.137,0-4.035,1.375-4.699,3.406l-13.808,42.187c-0.494,1.506-0.234,3.158,0.696,4.441
									c0.93,1.284,2.419,2.043,4.005,2.043h65.19c2.188,0,4.118-1.44,4.741-3.54l12.501-42.188
									C412.983,221.971,412.695,220.352,411.76,219.102"/>
								<path style="fill:#2F2FA7;" d="M376.297,245.226c-1.327,2.86-4.404,4.247-6.873,3.099c-2.472-1.147-3.398-4.39-2.075-7.251
									c1.326-2.857,4.404-4.246,6.875-3.097C376.695,239.122,377.624,242.367,376.297,245.226"/>
							</g>
						</g>
					</g>
					<g>
						<g>
							<path style="fill-rule:evenodd;clip-rule:evenodd;fill:#E2B1CE;" d="M306.932,265.829c1.591,2.099,8.36,6.333,7.283,8.316
								c-1.166,2.154-7.117-2.925-9.032-3.709c2.011,2.148,6.823,5.664,6.383,6.98c-0.5,1.482-3.451,0.245-5.313-0.734
								c-1.989-1.049-3.686-2.525-4.81-3.091c1.449,1.684,4.984,4.529,3.865,6.028c-1.095,1.461-4.942-1.879-6.664-2.869
								c-2.274-1.303-5.009-3.083-6.659-3.541c-1.247-0.349-3.121,0.198-4.904,0.701c-4.684,1.318-10.274,1.373-15.153-0.947
								l7.475-12.21c2.72-0.131,4.878-1.171,7.679-2.736c1.811-1.007,4.263-2.871,6.533-2.907c3.392-0.056,10.3,3.066,14.812,6.37
								c1.867,1.365,6.908,5.334,6.296,6.681C313.685,270.447,308.732,266.621,306.932,265.829"/>
							<path style="fill-rule:evenodd;clip-rule:evenodd;fill:#BB78A2;" d="M314.223,273.14c1.022,3.639-4.671,0.246-6.949-1.155
								c-3.549-2.179-7.239-4.935-9.601-6.164c3.802,0.332,10.211,6.329,14.212,7.518
								C312.691,273.578,313.591,273.669,314.223,273.14"/>
							<path style="fill-rule:evenodd;clip-rule:evenodd;fill:#BB78A2;" d="M314.546,267.196c0.485,0.937,0.083,1.209-0.186,1.473
								c-1.042,1.011-4.977-1.322-6.757-2.415c-3.574-2.198-7.275-5.167-9.615-6.382c3.813,0.334,10.232,6.334,14.216,7.519
								C313.006,267.631,313.915,267.726,314.546,267.196"/>
							<path style="fill-rule:evenodd;clip-rule:evenodd;fill:#BB78A2;" d="M305.447,279.375c-0.517,1.689-4.307-0.486-6.341-1.601
								c-1.157-0.633-2.34-1.397-3.535-2.15c-1.188-0.746-2.469-1.807-3.535-2.149c-1.753-0.565-5.297,1.015-7.255,1.241
								c-4.21,0.486-8.583,0.185-12.853-1.75c2.337-4.128,4.576-8.015,7.474-12.21c0.469,0.818-0.269,4.455-1.832,6.681
								c-1.248,1.775-2.405,3.12-3.76,3.965c4.39,1.356,9.076,1.833,13.654,1.658c2.302-0.09,3.649-0.742,5.953,0.525
								C297.057,275.585,303.596,280.27,305.447,279.375"/>
							<path style="fill-rule:evenodd;clip-rule:evenodd;fill:#BB78A2;" d="M310.824,275.81c2.479,2.963-1.039,2.516-2.299,2.09
								c-4.568-1.538-8.255-6.196-14.568-8.687c1.048-0.105,1.797,0.256,2.861,0.747c2.837,1.306,7.172,4.48,10.135,6.104
								C308.31,276.805,309.919,277.439,310.824,275.81"/>
						</g>
						<g>
							<path style="fill-rule:evenodd;clip-rule:evenodd;fill:#C167A0;" d="M276.348,279.834c3.069-8.376,4.216-16.33,4.503-24.097
								c-24.243-5.664-47.864-8.498-71.419-11.013c-4.886-4.79-10.718-9.544-16.493-14.445c-5.455-4.63-11.338-9.563-17.804-14.053
								c-6.497-4.51-13.47-8.378-20.35-11.448c-6.837-3.051-16.562-7.044-21.541-2.162c-0.529,0.52-1.554,2.015-1.798,3.08
								c-0.584,2.566,0.842,6.449,2.353,9.267c1.655,3.084,3.857,5.882,5.841,8.504c2.133,2.821,4.462,5.611,7.274,8.187
								c13.721,12.563,30.18,27.325,49.112,36.752c7.388,3.678,14.211,6.662,21.191,7.933c6.638,1.21,13.281,1.66,19.935,2.192
								C250.449,279.592,263.373,280.146,276.348,279.834z"/>
							<path style="fill:#9A466E;" d="M136.573,226.889c-10.233-13.324-4.466-23.062-4.213-23.124
								c-0.4,0.617-0.78,1.339-0.915,1.932c-0.584,2.566,0.842,6.449,2.353,9.267c1.655,3.084,3.857,5.882,5.841,8.504
								c2.133,2.821,4.462,5.611,7.274,8.187c13.721,12.563,30.18,27.325,49.112,36.752c7.388,3.678,14.211,6.662,21.191,7.933
								c6.638,1.21,13.281,1.66,19.935,2.192c9.105,0.725,18.035,1.205,26.929,1.342c-9.293,0.252-18.634,0.127-28.169-0.253
								c-6.781-0.274-13.548-0.463-20.329-1.432c-7.129-1.016-14.141-3.797-21.744-7.266
								C174.359,262.03,149.764,244.063,136.573,226.889z"/>
							<g>
								<defs>
									<path id="SVGID_00000111159245529702560500000003947042164442861737_" d="M276.348,279.834
										c3.069-8.376,4.216-16.33,4.503-24.097c-24.243-5.664-47.864-8.498-71.419-11.013c-4.886-4.79-10.718-9.544-16.493-14.445
										c-5.455-4.63-11.338-9.563-17.804-14.053c-6.497-4.51-13.47-8.378-20.35-11.448c-6.837-3.051-16.562-7.044-21.541-2.162
										c-0.529,0.52-1.554,2.015-1.798,3.08c-0.584,2.566,0.842,6.449,2.353,9.267c1.655,3.084,3.857,5.882,5.841,8.504
										c2.133,2.821,4.462,5.611,7.274,8.187c13.721,12.563,30.18,27.325,49.112,36.752c7.388,3.678,14.211,6.662,21.191,7.933
										c6.638,1.21,13.281,1.66,19.935,2.192C250.449,279.592,263.373,280.146,276.348,279.834z"/>
								</defs>
								<clipPath id="SVGID_00000114031526116652453130000015786729309059527610_">
									<use xlink:href="#SVGID_00000111159245529702560500000003947042164442861737_"  style="overflow:visible;"/>
								</clipPath>
								
									<path style="clip-path:url(#SVGID_00000114031526116652453130000015786729309059527610_);fill-rule:evenodd;clip-rule:evenodd;fill:#9A466E;" d="
									M211.91,243.752c-0.528-0.575-1.866-1.588-2.581-1.477c-0.174,0.017-0.335,0.105-0.49,0.214
									c-0.573,3.15-0.942,7.393-0.785,11.137c0.037,0.86,0.161,2.958,1.047,3.317c1.435,0.58,1.957-2.062,2.094-2.716
									C211.95,250.576,212.069,247.004,211.91,243.752z"/>
							</g>
						</g>
					</g>
				</g>
			</g>
		</g>
		<g>
			<g>
				<path style="fill:#C167A0;" d="M352.182,61.677l-42.995-0.001c-6.612,0-11.972,5.359-11.972,11.973v17.73
					c-0.001,6.613,5.359,11.975,11.971,11.975l0.874-0.001L298.74,118.86l26.565-15.507l26.877,0.001
					c6.61-0.001,11.97-5.362,11.97-11.975l0-17.73C364.152,67.036,358.793,61.678,352.182,61.677z"/>
				<g>
					<path style="fill:#FFFFFF;" d="M308.137,76.711l46.056,0.001c0.889,0,1.609-0.72,1.609-1.609c0-0.888-0.722-1.608-1.609-1.608
						h-46.055c-0.89,0-1.609,0.719-1.609,1.608C306.529,75.99,307.249,76.711,308.137,76.711z"/>
					<path style="fill:#FFFFFF;" d="M308.137,84.326l46.056,0.001c0.889,0.002,1.608-0.719,1.609-1.609
						c-0.001-0.888-0.72-1.608-1.61-1.607l-46.056-0.001c-0.888-0.001-1.609,0.718-1.608,1.607
						C306.528,83.606,307.248,84.327,308.137,84.326z"/>
					<path style="fill:#FFFFFF;" d="M308.137,91.815l46.056-0.001c0.889,0.001,1.608-0.718,1.609-1.607
						c-0.001-0.889-0.721-1.608-1.609-1.608h-46.056c-0.889-0.002-1.609,0.718-1.609,1.607
						C306.529,91.096,307.249,91.815,308.137,91.815z"/>
				</g>
			</g>
			<g>
				<g>
					<path style="fill:#8080C9;" d="M213.65,95.587l62.824-0.001c5.695,0,10.31,4.615,10.31,10.311v15.269
						c0.001,5.695-4.615,10.312-10.309,10.312l-0.753-0.001l9.749,13.355l-22.878-13.355l-48.944,0.001
						c-5.693-0.001-10.308-4.618-10.309-10.312l0.001-15.269C203.342,100.203,207.957,95.588,213.65,95.587z"/>
					<g>
						<g>
							<path style="fill:#FFFFFF;" d="M277.379,108.535l-39.457,0.001c-0.766,0-1.386-0.62-1.386-1.385
								c0-0.764,0.622-1.385,1.386-1.385h39.456c0.766,0,1.386,0.62,1.386,1.385C278.765,107.914,278.144,108.535,277.379,108.535z"
								/>
							<path style="fill:#FFFFFF;" d="M277.379,115.093l-39.457,0.001c-0.766,0.001-1.385-0.62-1.386-1.385
								c0.001-0.765,0.62-1.385,1.386-1.384l39.457-0.001c0.765-0.001,1.386,0.619,1.385,1.384
								C278.766,114.473,278.145,115.094,277.379,115.093z"/>
							<path style="fill:#FFFFFF;" d="M277.379,121.543l-39.457-0.001c-0.766,0.001-1.385-0.618-1.386-1.384
								c0-0.766,0.621-1.385,1.386-1.385h39.457c0.766-0.002,1.385,0.619,1.386,1.384
								C278.765,120.923,278.144,121.542,277.379,121.543z"/>
						</g>
					</g>
				</g>
				<g>
					<path style="fill:#FFFFFF;" d="M232.77,113.709c0-6.721-5.449-12.172-12.171-12.172c-6.722,0-12.172,5.451-12.172,12.172
						c0,6.722,5.45,12.172,12.172,12.172C227.321,125.881,232.77,120.43,232.77,113.709z"/>
					<g>
						<defs>
							<path id="SVGID_00000061471557282314058030000012361842938125872045_" d="M232.77,113.709
								c0-6.721-5.449-12.172-12.171-12.172c-6.722,0-12.172,5.451-12.172,12.172c0,6.722,5.45,12.172,12.172,12.172
								C227.321,125.881,232.77,120.43,232.77,113.709z"/>
						</defs>
						<clipPath id="SVGID_00000129906197865420190490000010093127174392455563_">
							<use xlink:href="#SVGID_00000061471557282314058030000012361842938125872045_"  style="overflow:visible;"/>
						</clipPath>
						
							<path style="clip-path:url(#SVGID_00000129906197865420190490000010093127174392455563_);fill-rule:evenodd;clip-rule:evenodd;fill:#CECEF4;" d="
							M231.438,126.373c-8.105-0.069-13.59-0.075-21.675,0c-0.059-3.064,0.543-4.88,2.821-5.871
							c1.665-0.721,4.002-0.634,4.516-2.032c0.729-1.984-0.931-3.886-1.469-5.644c-1.16-3.809,0.857-8.26,4.518-8.579
							c3.827-0.338,6.391,4.037,5.417,8.014c-0.502,2.05-2.163,3.965-1.579,5.983c0.343,1.187,1.76,1.516,3.16,1.92
							C230.174,121.034,231.417,122.197,231.438,126.373z"/>
					</g>
				</g>
			</g>
			<g>
				<path style="fill:#C167A0;" d="M170.928,82.78l-19.52-0.001c-4.478,0-8.107,3.629-8.107,8.108v12.007
					c-0.001,4.478,3.629,8.109,8.107,8.109l0.592-0.001l-7.666,10.502l17.99-10.501l8.605,0.001
					c4.476-0.001,8.106-3.631,8.106-8.109l0-12.007C179.034,86.409,175.405,82.781,170.928,82.78z"/>
				<g>
					<path style="fill:#FFFFFF;" d="M157.697,92.51c0,0.194-0.038,0.374-0.113,0.542c-0.074,0.167-0.173,0.315-0.296,0.442
						c-0.124,0.128-0.269,0.228-0.437,0.298c-0.167,0.07-0.348,0.105-0.542,0.105c-0.396,0-0.724-0.132-0.984-0.396
						c-0.26-0.265-0.39-0.595-0.39-0.991c0-0.881,0.17-1.709,0.509-2.485c0.338-0.775,0.8-1.454,1.38-2.035
						c0.582-0.582,1.261-1.04,2.036-1.375c0.775-0.334,1.599-0.501,2.471-0.501c0.872,0,1.696,0.172,2.472,0.516
						c0.775,0.344,1.454,0.806,2.036,1.388c0.581,0.581,1.042,1.26,1.38,2.035c0.34,0.775,0.509,1.595,0.509,2.458
						c0,1.744-0.629,3.26-1.889,4.546l-2.075,1.917c-0.705,0.705-1.057,1.476-1.057,2.313c0,0.396-0.131,0.725-0.39,0.985
						c-0.26,0.26-0.589,0.39-0.985,0.39c-0.396,0-0.727-0.13-0.991-0.39c-0.264-0.26-0.396-0.588-0.396-0.985
						c0-1.586,0.629-3.009,1.89-4.269l2.075-1.93c0.705-0.731,1.057-1.59,1.057-2.577c0-0.494-0.097-0.961-0.29-1.401
						c-0.195-0.441-0.457-0.826-0.786-1.157c-0.331-0.33-0.716-0.592-1.158-0.786c-0.44-0.194-0.908-0.291-1.401-0.291
						c-0.502,0-0.973,0.095-1.414,0.285c-0.441,0.189-0.826,0.447-1.157,0.773c-0.33,0.326-0.59,0.709-0.779,1.15
						C157.791,91.524,157.697,91.999,157.697,92.51z M163.207,105.369c0,0.52-0.183,0.963-0.548,1.328
						c-0.366,0.366-0.809,0.548-1.329,0.548c-0.52,0-0.962-0.183-1.328-0.548c-0.366-0.366-0.549-0.809-0.549-1.328
						s0.183-0.963,0.549-1.328c0.366-0.365,0.808-0.548,1.328-0.548c0.52,0,0.963,0.183,1.329,0.548
						C163.024,104.407,163.207,104.849,163.207,105.369z"/>
				</g>
			</g>
			<g>
				<path style="fill:#2F2FA7;" d="M59.909,190.837h58.629c3.906,0,7.072-3.166,7.072-7.072V98.797c0-3.906-3.166-7.072-7.072-7.072
					H59.909c-3.906,0-7.072,3.166-7.072,7.072v84.969C52.837,187.671,56.003,190.837,59.909,190.837z"/>
				<g>
					
						<ellipse transform="matrix(0.7071 -0.7071 0.7071 0.7071 -61.0041 98.7063)" style="fill:#8080C9;" cx="88.647" cy="122.992" rx="23.615" ry="23.615"/>
					<g>
						<defs>
							
								<ellipse id="SVGID_00000021082245868444239410000013643527035781430935_" transform="matrix(0.7071 -0.7071 0.7071 0.7071 -61.0041 98.7063)" cx="88.647" cy="122.992" rx="23.615" ry="23.615"/>
						</defs>
						<clipPath id="SVGID_00000104665861824116244720000015387127299069967505_">
							<use xlink:href="#SVGID_00000021082245868444239410000013643527035781430935_"  style="overflow:visible;"/>
						</clipPath>
						
							<path style="clip-path:url(#SVGID_00000104665861824116244720000015387127299069967505_);fill-rule:evenodd;clip-rule:evenodd;fill:#BCBCEA;" d="
							M109.676,147.56c-15.724-0.134-26.366-0.143-42.051,0c-0.114-5.942,1.053-9.467,5.474-11.39
							c3.23-1.399,7.763-1.23,8.761-3.941c1.415-3.849-1.806-7.537-2.849-10.95c-2.25-7.39,1.662-16.025,8.763-16.646
							c7.427-0.654,12.4,7.832,10.512,15.549c-0.973,3.977-4.197,7.692-3.065,11.608c0.668,2.303,3.417,2.939,6.132,3.725
							C107.226,137.203,109.639,139.461,109.676,147.56z"/>
					</g>
				</g>
				<path style="fill:#FFFFFF;" d="M116.681,158.692H61.897c-1.104,0-2-0.895-2-2c0-1.104,0.896-2,2-2h54.784c1.104,0,2,0.896,2,2
					C118.681,157.796,117.785,158.692,116.681,158.692z"/>
				<path style="fill:#FFFFFF;" d="M116.681,169.403H61.897c-1.104,0-2-0.896-2-2c0-1.104,0.896-2,2-2h54.784c1.104,0,2,0.896,2,2
					C118.681,168.507,117.785,169.403,116.681,169.403z"/>
				<path style="fill:#FFFFFF;" d="M116.681,180.23H61.897c-1.104,0-2-0.895-2-2c0-1.104,0.896-2,2-2h54.784c1.104,0,2,0.896,2,2
					C118.681,179.334,117.785,180.23,116.681,180.23z"/>
			</g>
			<g>
				<path style="fill:#FFFFFF;" d="M59.507,128.014c-0.001-1.378-0.653-2.595-1.651-3.399c-0.026-0.017-0.046-0.046-0.073-0.061
					c-0.741-0.572-1.658-0.926-2.665-0.926l-21.053,0.013c-0.731,0.001-1.425,0.198-2.052,0.533
					c-0.053,0.023-0.101,0.049-0.151,0.081c-0.322,0.188-0.629,0.404-0.899,0.675c-0.828,0.83-1.283,1.932-1.282,3.103l0.007,12.137
					c0.002,2.418,1.97,4.384,4.387,4.384h0.003l21.053-0.014c1.171-0.001,2.273-0.457,3.1-1.286c0.828-0.83,1.284-1.931,1.283-3.102
					L59.507,128.014z"/>
				<polygon style="fill:#C167A0;" points="54.849,125.951 44.869,133.746 35.238,125.962 				"/>
				<path style="fill:#C167A0;" d="M56.589,141.613c-0.39,0.391-0.908,0.606-1.459,0.606l-21.053,0.013l-0.001,1.161v-1.161
					c-1.138,0-2.065-0.926-2.066-2.064l-0.007-12.137c0-0.486,0.174-0.941,0.48-1.311l11.644,9.412
					c0.213,0.172,0.471,0.258,0.73,0.258c0.252,0,0.504-0.082,0.715-0.246l11.447-8.941c0.107,0.249,0.168,0.523,0.168,0.812
					l0.007,12.138C57.193,140.704,56.979,141.223,56.589,141.613z"/>
			</g>
			<g>
				<path style="fill:#C167A0;" d="M474.306,196.907c-0.002-2.25-0.995-4.267-2.561-5.652c-0.043-0.041-0.086-0.083-0.132-0.12
					c-1.318-1.113-3.017-1.787-4.873-1.787l-36.289,0.022c-1.311,0.001-2.568,0.338-3.681,0.962c-0.001,0-0.001,0.001-0.001,0.001
					c-0.602,0.338-1.164,0.755-1.664,1.257c-1.427,1.43-2.212,3.33-2.211,5.349l0.013,20.921c0.003,4.167,3.395,7.557,7.563,7.557
					h0.004l36.29-0.023c2.019-0.001,3.917-0.788,5.344-2.217c1.427-1.43,2.213-3.329,2.212-5.348L474.306,196.907z"/>
				<polygon style="fill:#FFFFFF;" points="466.276,193.35 449.073,206.788 432.472,193.37 				"/>
				<path style="fill:#FFFFFF;" d="M469.277,220.348c-0.672,0.673-1.565,1.044-2.516,1.044l-36.29,0.023l-0.003,2.001v-2.001
					c-1.962,0-3.559-1.596-3.561-3.558l-0.012-20.921c-0.001-0.838,0.301-1.622,0.828-2.259l20.071,16.224
					c0.367,0.295,0.812,0.444,1.258,0.444c0.434,0,0.869-0.141,1.232-0.424l19.731-15.412c0.185,0.43,0.289,0.902,0.289,1.399
					l0.013,20.923C470.318,218.781,469.948,219.676,469.277,220.348z"/>
			</g>
			<g>
				<path style="fill:#8080C9;" d="M260.756,44.242c-0.002-2.38-1.053-4.514-2.709-5.98c-0.046-0.044-0.091-0.088-0.139-0.126
					c-1.394-1.177-3.192-1.89-5.155-1.89l-38.394,0.023c-1.387,0.001-2.717,0.358-3.895,1.018c0,0,0,0,0,0
					c-0.637,0.357-1.231,0.799-1.761,1.33c-1.51,1.513-2.341,3.523-2.339,5.66l0.013,22.134c0.003,4.409,3.592,7.995,8.001,7.995
					h0.005l38.394-0.025c2.136-0.001,4.144-0.834,5.654-2.346c1.51-1.513,2.341-3.522,2.34-5.658L260.756,44.242z"/>
				<polygon style="fill:#1E1E77;" points="252.261,40.479 234.061,54.696 216.497,40.5 				"/>
				<path style="fill:#1E1E77;" d="M255.436,69.042c-0.711,0.712-1.656,1.104-2.662,1.104l-38.394,0.024l-0.003,2.117v-2.117
					c-2.076,0-3.765-1.689-3.767-3.764l-0.013-22.134c-0.001-0.887,0.318-1.716,0.876-2.391l21.235,17.165
					c0.388,0.313,0.859,0.47,1.331,0.47c0.459,0,0.92-0.149,1.303-0.448l20.875-16.305c0.196,0.455,0.306,0.955,0.306,1.48
					l0.014,22.136C256.537,67.384,256.147,68.33,255.436,69.042z"/>
			</g>
			<g>
				<g>
					<path style="fill:#1E1E77;" d="M433.524,176.916h-87.717c-6.351,0-11.5-5.149-11.5-11.5v-36.334c0-6.351,5.149-11.5,11.5-11.5
						h87.717c6.351,0,11.5,5.149,11.5,11.5v36.334C445.024,171.767,439.875,176.916,433.524,176.916z"/>
					<g>
						<polygon style="fill:#6D59CF;" points="407.635,164.784 389.311,146.067 375.104,156.841 354.232,135.305 343.645,143.485 
							342.422,141.903 354.423,132.629 375.307,154.177 389.506,143.409 409.065,163.385 						"/>
						<g>
							<circle style="fill:#FFFFFF;" cx="408.35" cy="164.085" r="2.535"/>
							<path style="fill:#FFFFFF;" d="M392.05,144.833c0,1.4-1.135,2.535-2.535,2.535c-1.4,0-2.535-1.135-2.535-2.535
								s1.135-2.535,2.535-2.535C390.915,142.298,392.05,143.433,392.05,144.833z"/>
							<path style="fill:#FFFFFF;" d="M377.868,155.486c0,1.4-1.135,2.535-2.535,2.535c-1.4,0-2.535-1.135-2.535-2.535
								s1.135-2.535,2.535-2.535C376.733,152.951,377.868,154.086,377.868,155.486z"/>
							<path style="fill:#FFFFFF;" d="M356.87,133.967c0,1.4-1.135,2.535-2.535,2.535s-2.535-1.135-2.535-2.535
								c0-1.4,1.135-2.535,2.535-2.535S356.87,132.567,356.87,133.967z"/>
							<path style="fill:#FFFFFF;" d="M345.568,142.758c0,1.4-1.135,2.535-2.535,2.535c-1.4,0-2.535-1.135-2.535-2.535
								c0-1.4,1.135-2.535,2.535-2.535C344.434,140.223,345.568,141.358,345.568,142.758z"/>
						</g>
						<g>
							<path style="fill:#6D59CF;" d="M435.056,157.501h-19.894c-0.553,0-1-0.447-1-1c0-0.553,0.447-1,1-1h19.894
								c0.553,0,1,0.447,1,1C436.056,157.054,435.609,157.501,435.056,157.501z"/>
							<path style="fill:#6D59CF;" d="M435.056,161.94h-19.894c-0.553,0-1-0.447-1-1c0-0.553,0.447-1,1-1h19.894
								c0.553,0,1,0.447,1,1C436.056,161.492,435.609,161.94,435.056,161.94z"/>
							<path style="fill:#6D59CF;" d="M435.056,166.378h-19.894c-0.553,0-1-0.447-1-1c0-0.553,0.447-1,1-1h19.894
								c0.553,0,1,0.447,1,1C436.056,165.931,435.609,166.378,435.056,166.378z"/>
						</g>
						<g>
							<path style="fill:#6D59CF;" d="M409.977,128.191h-43.811c-0.502,0-0.908-0.447-0.908-1c0-0.553,0.406-1,0.908-1h43.811
								c0.502,0,0.908,0.447,0.908,1C410.884,127.743,410.478,128.191,409.977,128.191z"/>
							<path style="fill:#6D59CF;" d="M409.977,132.629h-43.811c-0.502,0-0.908-0.447-0.908-1c0-0.553,0.406-1,0.908-1h43.811
								c0.502,0,0.908,0.447,0.908,1C410.884,132.182,410.478,132.629,409.977,132.629z"/>
						</g>
						<g>
							<path style="fill:#FFFFFF;" d="M436.963,138.489c0-6.675-5.411-12.088-12.087-12.088s-12.088,5.413-12.088,12.088
								c0,6.675,5.412,12.088,12.088,12.088S436.963,145.164,436.963,138.489z"/>
							<g>
								<defs>
									<path id="SVGID_00000003810000595442970830000016124687950489023160_" d="M436.963,138.489
										c0-6.675-5.411-12.088-12.087-12.088s-12.088,5.413-12.088,12.088c0,6.675,5.412,12.088,12.088,12.088
										S436.963,145.164,436.963,138.489z"/>
								</defs>
								<clipPath id="SVGID_00000147916519849137263390000006726380808135884476_">
									<use xlink:href="#SVGID_00000003810000595442970830000016124687950489023160_"  style="overflow:visible;"/>
								</clipPath>
								
									<path style="clip-path:url(#SVGID_00000147916519849137263390000006726380808135884476_);fill-rule:evenodd;clip-rule:evenodd;fill:#C167A0;" d="
									M435.641,151.066c-8.05-0.068-13.496-0.074-21.526,0c-0.058-3.043,0.539-4.846,2.802-5.831
									c1.654-0.716,3.974-0.63,4.485-2.018c0.724-1.97-0.924-3.859-1.459-5.605c-1.152-3.783,0.851-8.203,4.487-8.521
									c3.801-0.335,6.347,4.009,5.38,7.959c-0.499,2.036-2.148,3.937-1.569,5.941c0.341,1.178,1.748,1.506,3.139,1.907
									C434.386,145.763,435.621,146.919,435.641,151.066z"/>
							</g>
						</g>
					</g>
				</g>
				<g>
					<path style="fill-rule:evenodd;clip-rule:evenodd;fill:#E488BD;" d="M349.55,196.761h47.313c2.026,0,3.669-1.642,3.669-3.668
						v-20.906c0-2.026-1.643-3.669-3.669-3.669H349.55c-2.026,0-3.668,1.642-3.668,3.669v20.906
						C345.882,195.118,347.524,196.761,349.55,196.761z"/>
					<g>
						<g>
							<path style="fill:#FFFFFF;" d="M386.97,176.902c0.222-0.517,0.524-0.97,0.91-1.358c0.384-0.388,0.835-0.695,1.353-0.921
								c0.517-0.225,1.065-0.338,1.648-0.338c0.584,0,1.132,0.112,1.649,0.338c0.517,0.226,0.967,0.532,1.352,0.921
								c0.386,0.388,0.688,0.841,0.911,1.358c0.222,0.516,0.333,1.062,0.333,1.638c0,0.576-0.11,1.12-0.333,1.633
								c-0.223,0.513-0.525,0.964-0.911,1.352c-0.385,0.389-0.835,0.695-1.352,0.921c-0.517,0.225-1.065,0.338-1.649,0.338
								c-0.582,0-1.131-0.113-1.648-0.338c-0.517-0.226-0.969-0.532-1.353-0.921c-0.386-0.388-0.688-0.839-0.91-1.352
								c-0.223-0.514-0.334-1.058-0.334-1.633C386.637,177.964,386.748,177.419,386.97,176.902z M391.338,190.575l-11.317-14.552
								c-0.146-0.187-0.218-0.406-0.218-0.655c0-0.152,0.029-0.295,0.089-0.426c0.059-0.132,0.136-0.246,0.234-0.343
								c0.097-0.097,0.211-0.175,0.343-0.234c0.132-0.059,0.273-0.089,0.427-0.089c0.331,0,0.624,0.146,0.873,0.437l11.203,14.386
								c0.174,0.194,0.26,0.44,0.26,0.739c0,0.146-0.029,0.284-0.085,0.416c-0.054,0.132-0.131,0.248-0.228,0.349
								c-0.096,0.1-0.211,0.179-0.342,0.234c-0.132,0.056-0.275,0.084-0.428,0.084C391.818,190.918,391.547,190.804,391.338,190.575
								z M390.08,176.626c-0.251,0.111-0.469,0.262-0.655,0.452c-0.187,0.191-0.337,0.412-0.447,0.666
								c-0.111,0.253-0.166,0.519-0.166,0.795c0,0.284,0.053,0.551,0.16,0.801c0.107,0.249,0.254,0.468,0.441,0.655
								c0.188,0.187,0.408,0.337,0.661,0.447c0.254,0.111,0.522,0.166,0.806,0.166c0.292,0,0.563-0.055,0.818-0.166
								c0.253-0.111,0.471-0.261,0.655-0.447c0.184-0.187,0.329-0.406,0.437-0.655c0.107-0.25,0.161-0.517,0.161-0.801
								c0-0.277-0.054-0.542-0.161-0.795c-0.107-0.254-0.254-0.475-0.442-0.666c-0.187-0.191-0.406-0.342-0.656-0.452
								c-0.25-0.111-0.519-0.167-0.812-0.167C390.597,176.46,390.331,176.515,390.08,176.626z M386.123,188.318
								c-0.226,0.513-0.531,0.961-0.917,1.347c-0.383,0.385-0.833,0.69-1.345,0.915c-0.514,0.225-1.062,0.338-1.645,0.338
								c-0.575,0-1.121-0.111-1.638-0.333c-0.516-0.222-0.967-0.525-1.353-0.91c-0.384-0.385-0.69-0.833-0.915-1.347
								c-0.223-0.514-0.337-1.065-0.337-1.654c0-0.589,0.113-1.143,0.337-1.659c0.226-0.517,0.533-0.965,0.921-1.347
								c0.389-0.382,0.84-0.683,1.353-0.905c0.513-0.222,1.057-0.333,1.632-0.333c0.59,0,1.142,0.113,1.654,0.338
								c0.513,0.225,0.962,0.531,1.347,0.915c0.385,0.385,0.689,0.836,0.91,1.352c0.223,0.517,0.333,1.063,0.333,1.638
								C386.46,187.257,386.347,187.805,386.123,188.318z M381.411,184.77c-0.253,0.112-0.473,0.26-0.66,0.447
								c-0.189,0.188-0.337,0.406-0.448,0.655c-0.111,0.25-0.167,0.517-0.167,0.801c0,0.285,0.056,0.552,0.167,0.801
								c0.11,0.25,0.259,0.468,0.448,0.655c0.187,0.187,0.408,0.336,0.66,0.447s0.522,0.167,0.805,0.167
								c0.285,0,0.553-0.054,0.808-0.162c0.253-0.107,0.472-0.255,0.66-0.442c0.187-0.187,0.334-0.407,0.442-0.661
								c0.108-0.253,0.161-0.521,0.161-0.806c0-0.284-0.053-0.553-0.161-0.806c-0.107-0.253-0.255-0.473-0.442-0.66
								c-0.187-0.187-0.407-0.335-0.66-0.442c-0.254-0.107-0.523-0.161-0.808-0.161C381.933,184.604,381.663,184.66,381.411,184.77z
								"/>
						</g>
						<g>
							<path style="fill:#FFFFFF;" d="M352.819,177.012h20.248c0.562,0,1.018-0.456,1.018-1.018c0-0.562-0.456-1.017-1.018-1.017
								h-20.248c-0.563,0-1.018,0.455-1.018,1.017C351.801,176.556,352.257,177.012,352.819,177.012z"/>
							<path style="fill:#FFFFFF;" d="M352.819,183.798h20.248c0.562,0,1.018-0.456,1.018-1.019c0-0.562-0.456-1.018-1.018-1.018
								h-20.248c-0.563,0-1.018,0.456-1.018,1.018C351.801,183.342,352.257,183.798,352.819,183.798z"/>
							<path style="fill:#FFFFFF;" d="M352.819,190.585h20.248c0.562,0,1.018-0.455,1.018-1.017c0-0.563-0.456-1.018-1.018-1.018
								h-20.248c-0.563,0-1.018,0.456-1.018,1.018C351.801,190.13,352.257,190.585,352.819,190.585z"/>
						</g>
					</g>
				</g>
			</g>
			<g>
				<path style="fill-rule:evenodd;clip-rule:evenodd;fill:#BCBCEA;" d="M267.031,164.441c0,2.498-2.024,4.522-4.52,4.522h-43.8
					c-2.497,0-4.52-2.024-4.52-4.522v-7.005c0-2.497,2.024-4.52,4.52-4.52h43.8c2.497,0,4.52,2.024,4.52,4.52V164.441z"/>
				<g>
					<g>
						<path style="fill:#C167A0;" d="M259.22,161.341h-37.969c-0.393,0-0.711-0.318-0.711-0.711c0-0.392,0.318-0.711,0.711-0.711
							h37.969c0.392,0,0.711,0.318,0.711,0.711C259.931,161.023,259.612,161.341,259.22,161.341z"/>
						<path style="fill:#FFFFFF;" d="M259.22,161.341h-27.148c-0.392,0-0.711-0.318-0.711-0.711c0-0.392,0.318-0.711,0.711-0.711
							h27.148c0.392,0,0.711,0.318,0.711,0.711C259.931,161.023,259.612,161.341,259.22,161.341z"/>
					</g>
					<path style="fill:#1E1E77;" d="M237.19,160.914c0,1.884-1.528,3.412-3.412,3.412c-1.884,0-3.412-1.528-3.412-3.412
						c0-1.885,1.528-3.412,3.412-3.412C235.662,157.502,237.19,159.03,237.19,160.914z"/>
				</g>
			</g>
			<g>
				<path style="fill-rule:evenodd;clip-rule:evenodd;fill:#C167A0;" d="M85.935,217.384c0,2.498-2.024,4.522-4.52,4.522h-43.8
					c-2.497,0-4.52-2.024-4.52-4.522v-7.005c0-2.497,2.024-4.52,4.52-4.52h43.8c2.497,0,4.52,2.024,4.52,4.52V217.384z"/>
				<g>
					<g>
						<path style="fill:#2F2FA7;" d="M78.125,214.283H40.155c-0.393,0-0.711-0.318-0.711-0.711c0-0.392,0.318-0.711,0.711-0.711
							h37.969c0.392,0,0.711,0.318,0.711,0.711C78.835,213.965,78.517,214.283,78.125,214.283z"/>
						<path style="fill:#FFFFFF;" d="M78.125,214.283H50.976c-0.392,0-0.711-0.318-0.711-0.711c0-0.392,0.318-0.711,0.711-0.711
							h27.148c0.392,0,0.711,0.318,0.711,0.711C78.835,213.965,78.517,214.283,78.125,214.283z"/>
					</g>
					<path style="fill:#1E1E77;" d="M56.094,213.856c0,1.884-1.528,3.412-3.412,3.412c-1.884,0-3.412-1.528-3.412-3.412
						c0-1.884,1.528-3.412,3.412-3.412C54.567,210.444,56.094,211.972,56.094,213.856z"/>
				</g>
			</g>
			<g>
				<path style="fill-rule:evenodd;clip-rule:evenodd;fill:#2F2FA7;" d="M188.872,65.177c0,2.498-2.024,4.522-4.52,4.522h-43.8
					c-2.497,0-4.52-2.024-4.52-4.522v-7.005c0-2.497,2.024-4.52,4.52-4.52h43.8c2.497,0,4.52,2.024,4.52,4.52V65.177z"/>
				<g>
					<g>
						<path style="fill:#C167A0;" d="M181.062,62.076h-37.969c-0.393,0-0.711-0.318-0.711-0.711c0-0.392,0.318-0.711,0.711-0.711
							h37.969c0.392,0,0.711,0.318,0.711,0.711C181.772,61.758,181.454,62.076,181.062,62.076z"/>
						<path style="fill:#FFFFFF;" d="M181.062,62.076h-27.148c-0.392,0-0.711-0.318-0.711-0.711c0-0.392,0.318-0.711,0.711-0.711
							h27.148c0.392,0,0.711,0.318,0.711,0.711C181.772,61.758,181.454,62.076,181.062,62.076z"/>
					</g>
					<path style="fill:#FFFFFF;" d="M159.031,61.65c0,1.884-1.528,3.412-3.412,3.412c-1.884,0-3.412-1.528-3.412-3.412
						c0-1.884,1.528-3.412,3.412-3.412C157.504,58.238,159.031,59.766,159.031,61.65z"/>
				</g>
			</g>
		</g>
	</g>
</g>
</svg>
