<svg width="60" height="69" fill="none" xmlns="http://www.w3.org/2000/svg"><path d="M55.714 4.178H4.272C1.915 4.178 0 6.132 0 8.53V60.2c0 2.399 1.915 4.353 4.272 4.353h51.442c2.357 0 4.286-1.954 4.286-4.353V8.53c0-2.398-1.929-4.352-4.286-4.352Zm-37.58 51.75H9.24V27.115h8.906v28.813h-.013ZM13.687 23.18c-2.852 0-5.156-2.332-5.156-5.189s2.304-5.188 5.156-5.188c2.84 0 5.157 2.331 5.157 5.188 0 2.87-2.304 5.189-5.157 5.189ZM51.47 55.928h-8.893V41.912c0-3.342-.067-7.641-4.62-7.641-4.635 0-5.344 3.639-5.344 7.398v14.259h-8.893V27.115h8.531v3.935h.12c1.193-2.264 4.099-4.65 8.425-4.65 9 0 10.674 5.97 10.674 13.733v15.795Z" fill="url(#a)"/><defs><linearGradient id="a" x1="30" y1="4.178" x2="30" y2="64.553" gradientUnits="userSpaceOnUse"><stop stop-color="#EBD7BE"/><stop offset="1" stop-color="#C99965"/></linearGradient></defs></svg>