<svg width="102" height="52" fill="none" xmlns="http://www.w3.org/2000/svg"><path d="M76 0C61.635 0 50 11.635 50 26c0 11.505 7.443 21.222 17.778 24.667 1.3.228 1.787-.552 1.787-1.235 0-.617-.032-2.665-.032-4.842-6.533 1.202-8.223-1.593-8.743-3.055-.292-.747-1.56-3.055-2.665-3.672-.91-.488-2.21-1.69-.032-1.723 2.047-.032 3.51 1.885 3.997 2.665 2.34 3.932 6.078 2.828 7.572 2.145.228-1.69.91-2.828 1.658-3.478-5.785-.65-11.83-2.892-11.83-12.837 0-2.828 1.008-5.168 2.665-6.988-.26-.65-1.17-3.314.26-6.89 0 0 2.178-.682 7.15 2.665 2.08-.585 4.29-.877 6.5-.877s4.42.293 6.5.877c4.972-3.38 7.15-2.665 7.15-2.665 1.43 3.575.52 6.24.26 6.89 1.657 1.82 2.665 4.128 2.665 6.988 0 9.977-6.078 12.187-11.862 12.837.942.813 1.754 2.373 1.754 4.81 0 3.478-.032 6.273-.032 7.15 0 .683.487 1.495 1.787 1.235A26.039 26.039 0 0 0 102 26c0-14.365-11.635-26-26-26Z" fill="url(#a)"/><path d="M7.61 27.227h2.335c-.047.765-.258 1.445-.633 2.039a3.771 3.771 0 0 1-1.554 1.39c-.662.334-1.459.5-2.39.5-.73 0-1.384-.125-1.962-.375a4.172 4.172 0 0 1-1.484-1.093c-.406-.474-.716-1.047-.93-1.72-.213-.671-.32-1.424-.32-2.257v-.79c0-.832.11-1.585.328-2.257.224-.677.542-1.253.953-1.727a4.247 4.247 0 0 1 1.492-1.093c.578-.256 1.224-.383 1.938-.383.948 0 1.747.172 2.398.516a3.757 3.757 0 0 1 1.524 1.421c.364.605.583 1.292.656 2.063H7.617c-.026-.458-.117-.846-.273-1.164a1.552 1.552 0 0 0-.711-.727c-.313-.166-.73-.25-1.25-.25-.39 0-.732.073-1.024.22a1.9 1.9 0 0 0-.734.663c-.198.297-.346.672-.445 1.125-.094.448-.14.974-.14 1.578v.805c0 .588.043 1.107.132 1.555.088.442.224.817.406 1.125.188.302.427.53.719.687.297.151.654.227 1.07.227.49 0 .893-.078 1.211-.235.318-.156.56-.388.727-.695.172-.307.273-.69.304-1.148Zm13.698-2.18v.539c0 .865-.117 1.64-.351 2.328a5.12 5.12 0 0 1-.993 1.758c-.427.479-.937.846-1.53 1.101a4.879 4.879 0 0 1-1.962.383 4.915 4.915 0 0 1-1.96-.383 4.396 4.396 0 0 1-1.532-1.101 5.149 5.149 0 0 1-1.008-1.758c-.234-.687-.351-1.463-.351-2.328v-.54c0-.869.117-1.645.351-2.327a5.12 5.12 0 0 1 .992-1.758 4.351 4.351 0 0 1 1.532-1.11 4.915 4.915 0 0 1 1.96-.382c.72 0 1.373.127 1.962.383a4.26 4.26 0 0 1 1.53 1.109c.433.484.766 1.07 1 1.758.24.682.36 1.458.36 2.328Zm-2.367.539v-.555c0-.604-.055-1.135-.164-1.593-.11-.459-.271-.844-.485-1.157a2.092 2.092 0 0 0-.78-.703 2.234 2.234 0 0 0-1.055-.242c-.396 0-.748.08-1.055.242-.302.156-.56.39-.774.703-.208.313-.367.698-.476 1.157a6.91 6.91 0 0 0-.164 1.593v.555c0 .599.055 1.13.164 1.594.11.458.27.846.484 1.164.214.312.474.55.782.71.307.162.658.243 1.054.243s.748-.08 1.055-.242c.307-.162.565-.399.773-.711a3.66 3.66 0 0 0 .477-1.164 6.98 6.98 0 0 0 .164-1.594ZM26.968 31H24.49l.016-1.828h2.46c.615 0 1.134-.138 1.556-.414.421-.281.74-.69.953-1.227.218-.536.328-1.185.328-1.945v-.555c0-.583-.063-1.096-.188-1.539-.12-.443-.3-.815-.539-1.117a2.256 2.256 0 0 0-.883-.68 2.918 2.918 0 0 0-1.203-.234h-2.547v-1.836h2.547c.76 0 1.456.13 2.086.39a4.703 4.703 0 0 1 1.649 1.102c.463.48.82 1.052 1.07 1.719.255.661.383 1.398.383 2.21v.54c0 .807-.128 1.544-.383 2.21a4.924 4.924 0 0 1-1.07 1.72 4.75 4.75 0 0 1-1.649 1.101c-.635.255-1.338.383-2.11.383Zm-1.149-11.375V31h-2.343V19.625h2.343Zm16.176 9.547V31H35.94v-1.828h6.055Zm-5.29-9.547V31h-2.343V19.625h2.344Zm4.5 4.633v1.781H35.94v-1.781h5.266Zm.782-4.633v1.836H35.94v-1.836h6.047Z" fill="url(#b)"/><defs><linearGradient id="a" x1="76" y1="0" x2="76" y2="50.717" gradientUnits="userSpaceOnUse"><stop stop-color="#A575BD"/><stop offset="1" stop-color="#3D1357"/></linearGradient><linearGradient id="b" x1="23" y1="13" x2="23" y2="39" gradientUnits="userSpaceOnUse"><stop stop-color="#A575BD"/><stop offset="1" stop-color="#3D1357"/></linearGradient></defs></svg>