<svg width="51" height="67" fill="none" xmlns="http://www.w3.org/2000/svg"><path d="M1.86 12.535C1.86 5.612 7.554 0 14.581 0h21.83c7.026 0 12.723 5.612 12.723 12.535 0 4.384-2.284 8.242-5.744 10.483 3.46 2.24 5.744 6.098 5.744 10.482 0 6.923-5.697 12.536-12.723 12.536h-.276a12.782 12.782 0 0 1-8.555-3.258v11.55C27.58 61.344 21.736 67 14.65 67 7.64 67 1.858 61.405 1.858 54.465c0-4.384 2.284-8.242 5.743-10.483C4.143 41.742 1.86 37.885 1.86 33.5c0-4.384 2.284-8.242 5.744-10.482-3.46-2.24-5.744-6.099-5.744-10.483Zm21.553 12.536h-8.831c-4.725 0-8.555 3.774-8.555 8.43 0 4.637 3.8 8.4 8.5 8.428h8.886V25.071Zm4.168 8.43c0 4.655 3.83 8.429 8.555 8.429h.276c4.725 0 8.555-3.774 8.555-8.43 0-4.655-3.83-8.429-8.555-8.429h-.276c-4.725 0-8.555 3.774-8.555 8.43Zm-13 12.535h-.054c-4.7.029-8.5 3.791-8.5 8.429s3.881 8.429 8.623 8.429c4.82 0 8.763-3.852 8.763-8.566v-8.292h-8.831Zm0-41.93c-4.724 0-8.554 3.774-8.554 8.43 0 4.655 3.83 8.429 8.555 8.429h8.831V4.106h-8.831Zm13 16.859h8.831c4.725 0 8.555-3.774 8.555-8.43 0-4.655-3.83-8.429-8.555-8.429h-8.831v16.859Z" fill="url(#a)"/><defs><linearGradient id="a" x1="25.497" y1="0" x2="25.497" y2="67" gradientUnits="userSpaceOnUse"><stop stop-color="#EBD7BE"/><stop offset="1" stop-color="#C99965"/></linearGradient></defs></svg>