<svg width="83" height="67" fill="none" xmlns="http://www.w3.org/2000/svg"><path d="M39.145 49.585c-.078.142-.039.079 0 0ZM71.454 38.2c-2.608 0-5.182.604-7.522 1.767-.765-1.557-1.556-2.918-1.686-3.939-.156-1.19-.324-1.897-.143-3.31.182-1.414 1-3.416.986-3.56-.013-.144-.181-.864-1.854-.877-1.673-.013-3.113.327-3.28.772a16.185 16.185 0 0 0-.688 2.5c-.298 1.53-3.344 7-5.07 9.854-.57-1.113-1.05-2.094-1.153-2.88-.156-1.19-.325-1.897-.143-3.31.182-1.413.999-3.416.986-3.56-.013-.143-.182-.863-1.854-.876-1.671-.013-3.112.327-3.28.772-.17.445-.35 1.491-.688 2.5-.337 1.007-4.395 10.115-5.457 12.483a64.812 64.812 0 0 1-1.349 2.827c-.052.104-.09.17-.117.222.04-.065.065-.13.065-.105-.285.563-.454.877-.454.877v.013c-.22.42-.467.799-.583.799-.078 0-.247-1.1.039-2.604.61-3.167 2.049-8.088 2.036-8.258-.013-.091.272-.942-.947-1.4-1.18-.432-1.608.288-1.712.288-.104 0-.181.262-.181.262s1.31-5.549-2.515-5.549c-2.386 0-5.706 2.644-7.338 5.038-1.024.563-3.242 1.78-5.576 3.076-.895.497-1.816 1.007-2.685 1.491-.065-.065-.117-.13-.181-.196-4.642-4.999-13.212-8.532-12.849-15.245.13-2.447.973-8.872 16.48-16.672 12.71-6.386 22.87-4.632 24.62-.732 2.516 5.561-5.433 15.912-18.631 17.404-5.03.563-7.675-1.4-8.337-2.133-.687-.772-.79-.811-1.05-.668-.428.236-.156.916 0 1.322.389 1.034 2.01 2.866 4.771 3.782 2.425.798 8.323 1.243 15.455-1.544 8.012-3.115 14.249-11.79 12.42-19.053C50.127 2.398 38-.024 26.53 4.085 19.697 6.532 12.307 10.38 6.991 15.392.677 21.359-.333 26.554.081 28.726c1.478 7.708 12.006 12.733 16.22 16.45-.208.117-.403.222-.584.326-2.113 1.06-10.14 5.3-12.148 9.776-2.27 5.077.376 8.715 2.113 9.212 5.42 1.518 10.969-1.217 13.95-5.705 2.982-4.489 2.62-10.351 1.245-13.02-.013-.04-.039-.066-.052-.106.545-.327 1.103-.654 1.66-.981 1.075-.641 2.126-1.23 3.047-1.74-.52 1.413-.895 3.114-1.09 5.574-.233 2.879.947 6.608 2.477 8.074.675.641 1.49.654 1.996.654 1.79 0 2.594-1.491 3.487-3.271 1.103-2.172 2.075-4.698 2.075-4.698s-1.219 6.831 2.114 6.831c1.218 0 2.437-1.583 2.983-2.395v.013s.026-.052.09-.157c.13-.196.195-.314.195-.314v-.039c.493-.85 1.57-2.8 3.19-6.02 2.1-4.16 4.11-9.356 4.11-9.356a26.52 26.52 0 0 0 .803 3.376c.363 1.243 1.129 2.604 1.738 3.926-.493.68-.79 1.073-.79 1.073 0 .01.005.02.012.026-.389.524-.83 1.086-1.284 1.636-1.659 1.989-3.631 4.266-3.89 4.92-.312.772-.234 1.348.363 1.793.44.34 1.219.393 2.034.327 1.492-.105 2.542-.47 3.048-.706a10.628 10.628 0 0 0 2.619-1.388c1.62-1.203 2.606-2.93 2.515-5.208-.051-1.256-.453-2.512-.946-3.69.142-.21.298-.432.44-.654 2.567-3.782 4.551-7.933 4.551-7.933.194 1.142.463 2.27.804 3.376.312 1.06.92 2.225 1.478 3.363-2.411 1.976-3.903 4.266-4.422 5.771-.96 2.787-.207 4.044 1.207 4.332.635.13 1.543-.17 2.217-.458a10.274 10.274 0 0 0 2.8-1.453c1.621-1.204 3.19-2.892 3.085-5.182-.038-1.034-.324-2.068-.7-3.062 2.036-.864 4.68-1.335 8.053-.942 7.22.85 8.634 5.404 8.362 7.302-.273 1.897-1.79 2.957-2.296 3.271-.505.314-.661.432-.622.668.065.34.298.327.726.248.597-.105 3.786-1.544 3.928-5.064.208-4.45-4.032-9.344-11.542-9.304l.004.002Zm-55.66 18.936c-2.384 2.63-5.73 3.625-7.168 2.787-1.544-.906-.934-4.776 2.008-7.58 1.79-1.7 4.097-3.27 5.628-4.24.35-.209.855-.523 1.478-.902.104-.066.156-.092.156-.092.116-.078.246-.144.376-.222 1.075 3.978.039 7.485-2.477 10.246v.003Zm17.425-11.96c-.83 2.054-2.579 7.288-3.642 7.013-.908-.235-1.466-4.227-.182-8.152.648-1.976 2.023-4.332 2.84-5.248 1.309-1.478 2.748-1.95 3.085-1.36.454.771-1.582 6.464-2.1 7.746Zm14.396 6.935c-.35.183-.675.3-.83.21-.117-.066.142-.315.142-.315s1.803-1.95 2.516-2.84c.415-.523.895-1.138 1.413-1.819 0 .066.013.131.013.21-.017 2.342-2.246 3.926-3.258 4.554h.004Zm11.099-2.552c-.26-.183-.221-.798.648-2.709.337-.746 1.114-2.002 2.464-3.206.153.456.236.932.246 1.413-.013 2.945-2.1 4.044-3.357 4.502h-.002Z" fill="url(#a)"/><defs><linearGradient id="a" x1="41.5" y1="2.094" x2="41.5" y2="64.912" gradientUnits="userSpaceOnUse"><stop stop-color="#EBD7BE"/><stop offset="1" stop-color="#C99965"/></linearGradient></defs></svg>