<svg width="64" height="59" viewBox="0 0 64 59" fill="none" xmlns="http://www.w3.org/2000/svg">
<path d="M52.6191 19.1227C51.9374 18.8819 51.2508 18.6577 50.5592 18.45C50.6739 17.9675 50.7797 17.4823 50.8765 16.9943C52.4365 9.15065 51.4165 2.8316 47.9353 0.751442C44.6021 -1.24463 39.1357 0.835529 33.6213 5.80916C33.0791 6.29991 32.548 6.80536 32.028 7.32551C31.6813 6.97997 31.3258 6.64178 30.9614 6.31094C25.1816 0.992679 19.3885 -1.24738 15.9113 0.839666C12.5781 2.83987 11.5875 8.77983 12.9915 16.2141C13.1319 16.9493 13.2897 17.6813 13.4648 18.41C12.6448 18.6513 11.8528 18.9091 11.0955 19.182C4.32782 21.6288 0 25.4652 0 29.4436C0 33.5542 4.64514 37.676 11.7022 40.1752C12.2746 40.3765 12.8524 40.5635 13.4354 40.7362C13.2461 41.5165 13.0786 42.3054 12.9328 43.1031C11.5995 50.4092 12.6395 56.2085 15.966 58.1963C19.4019 60.2489 25.1656 58.1398 30.7841 53.0531C31.2285 52.6506 31.6729 52.2256 32.1173 51.778C32.6791 52.3395 33.2568 52.8845 33.8506 53.4129C39.2904 58.2625 44.6621 60.2213 47.9833 58.228C51.4165 56.1686 52.5325 49.9377 51.0832 42.3574C50.9721 41.7784 50.8441 41.1875 50.6992 40.5846C51.1045 40.4605 51.5014 40.3323 51.8898 40.2C59.2229 37.6815 64 33.6094 64 29.4477C63.9973 25.45 59.5309 21.5889 52.6191 19.1227ZM35.4199 7.94584C40.1437 3.68489 44.5595 2.00312 46.5727 3.20517C48.7153 4.4858 49.5486 9.64967 48.202 16.4222C48.1131 16.8634 48.0171 17.3031 47.914 17.7415C45.095 17.0785 42.2363 16.6106 39.357 16.3409C37.7085 13.8856 35.9013 11.5483 33.9479 9.34502C34.4261 8.8653 34.9159 8.3989 35.4172 7.94584H35.4199ZM18.8965 32.8429C19.4752 34.0009 20.0801 35.1446 20.7111 36.274C21.3538 37.4265 22.0235 38.5619 22.7204 39.6803C20.7392 39.4576 18.7705 39.1296 16.822 38.6974C17.3873 36.8061 18.0832 34.8418 18.8965 32.8429ZM18.8965 26.1806C18.0966 24.2246 17.4193 22.3002 16.8633 20.4419C18.6899 20.0187 20.6365 19.6727 22.6657 19.4108C21.9858 20.5081 21.3316 21.6215 20.7031 22.7509C20.0747 23.8804 19.4712 25.0236 18.8925 26.1806H18.8965ZM20.3498 29.5125C21.1925 27.6956 22.1 25.9137 23.0724 24.1667C24.0439 22.4206 25.0781 20.7144 26.1749 19.0483C28.0788 18.8994 30.0307 18.8208 32.0027 18.8208C33.9746 18.8208 35.9385 18.8994 37.8411 19.0497C38.9264 20.7121 39.9543 22.4123 40.925 24.1501C41.8956 25.8879 42.8151 27.6616 43.6835 29.4711C42.8267 31.2944 41.9094 33.0837 40.9316 34.839C39.9619 36.5851 38.9397 38.2963 37.8651 39.9726C35.9652 40.1104 33.9986 40.1862 31.9987 40.1862C29.9988 40.1862 28.0695 40.1214 26.2042 39.996C25.0994 38.3243 24.0568 36.6108 23.0764 34.8556C22.096 33.1003 21.1858 31.3192 20.3458 29.5125H20.3498ZM43.2982 36.2547C43.9426 35.0986 44.5613 33.9274 45.1541 32.7409C45.9668 34.6461 46.6842 36.5933 47.3034 38.5747C45.3319 39.0337 43.3386 39.3857 41.3316 39.6293C42.0089 38.5182 42.6644 37.3934 43.2982 36.2547ZM45.1275 26.182C44.5373 25.0195 43.9235 23.8707 43.2862 22.7358C42.664 21.6164 42.0156 20.5109 41.3409 19.4191C43.3822 19.6865 45.3408 20.0422 47.1767 20.4764C46.5864 22.4125 45.9025 24.3168 45.1275 26.182ZM32.0293 11.37C33.3607 12.8741 34.6178 14.4467 35.7958 16.0818C33.2759 15.9577 30.7543 15.9577 28.2308 16.0818C29.4748 14.3807 30.7481 12.8023 32.0293 11.37ZM17.2873 3.28926C19.4285 2.0045 24.163 3.84066 29.1535 8.42693C29.4721 8.72055 29.7934 9.02796 30.1134 9.3464C28.15 11.5494 26.3301 13.8847 24.6656 16.3368C21.7928 16.6044 18.9397 17.0649 16.1247 17.7153C15.962 17.0389 15.8153 16.3579 15.6847 15.6723C14.4781 9.29953 15.2767 4.49545 17.2873 3.28926ZM14.1661 38.0068C13.6328 37.8497 13.1061 37.6792 12.5861 37.4954C9.46627 36.3926 6.88905 34.9534 5.11979 33.3861C3.53585 31.9814 2.73322 30.5794 2.73322 29.4436C2.73322 27.0298 6.20774 23.9502 12.0022 21.8618C12.7301 21.5999 13.4643 21.3605 14.2047 21.1436C15.0653 24.003 16.1075 26.8006 17.3246 29.518C16.093 32.273 15.0379 35.1087 14.1661 38.0068ZM28.9828 50.9192C26.4989 53.1689 24.011 54.7639 21.8178 55.5675C19.8472 56.2885 18.2779 56.3092 17.3299 55.7426C15.3114 54.5364 14.4714 49.8785 15.6167 43.6311C15.7527 42.8959 15.9082 42.1607 16.0833 41.4255C18.9266 42.0587 21.8082 42.4912 24.7083 42.7199C26.389 45.1848 28.2239 47.5333 30.2014 49.7503C29.8041 50.1542 29.3974 50.5429 28.9828 50.9192ZM32.1053 47.7183C30.8094 46.2695 29.5161 44.6663 28.2548 42.9432C29.4806 42.9928 30.7285 43.0177 31.9987 43.0177C33.3026 43.0177 34.5932 42.9887 35.8652 42.9294C34.6914 44.5907 33.4365 46.1891 32.1053 47.7183ZM48.7073 51.6595C48.326 53.7879 47.5594 55.2077 46.6114 55.7757C44.5941 56.986 40.281 55.4131 35.6305 51.2652C35.0972 50.791 34.5639 50.2824 34.0213 49.7489C35.9602 47.5233 37.7522 45.1653 39.385 42.691C42.3011 42.4355 45.1968 41.9726 48.0513 41.3056C48.182 41.8514 48.2975 42.3863 48.398 42.9101C49.0393 46.2599 49.1313 49.2898 48.7073 51.6595ZM51.0272 37.5105C50.6779 37.6305 50.3179 37.7463 49.9526 37.8593C49.0575 34.9864 47.9746 32.1798 46.7114 29.4587C47.9272 26.774 48.9677 24.008 49.8259 21.1794C50.4806 21.3766 51.1165 21.5833 51.7285 21.8025C57.6509 23.9144 61.2641 27.0408 61.2641 29.4436C61.2641 32.0076 57.3616 35.3353 51.0272 37.5105Z" fill="url(#paint0_linear_266_30)"/>
<path d="M31.9837 34C32.9733 34.0032 33.9416 33.7127 34.766 33.1652C35.5904 32.6178 36.2338 31.838 36.6147 30.9247C36.9956 30.0114 37.097 29.0055 36.9059 28.0345C36.7148 27.0636 36.2399 26.1711 35.5413 25.4702C34.8427 24.7693 33.9518 24.2915 32.9815 24.0973C32.0111 23.903 31.0049 24.0011 30.0904 24.379C29.1758 24.757 28.3939 25.3978 27.8438 26.2204C27.2937 27.043 27 28.0104 27 29C26.9986 29.6556 27.1265 30.3051 27.3763 30.9113C27.626 31.5174 27.9928 32.0685 28.4557 32.5328C28.9185 32.9972 29.4683 33.3658 30.0737 33.6175C30.6791 33.8692 31.3281 33.9992 31.9837 34Z" fill="url(#paint1_linear_266_30)"/>
<defs>
<linearGradient id="paint0_linear_266_30" x1="32" y1="0" x2="32" y2="59" gradientUnits="userSpaceOnUse">
<stop stop-color="#EBD7BE"/>
<stop offset="1" stop-color="#C99965"/>
</linearGradient>
<linearGradient id="paint1_linear_266_30" x1="32" y1="24" x2="32" y2="34" gradientUnits="userSpaceOnUse">
<stop stop-color="#EBD7BE"/>
<stop offset="1" stop-color="#C99965"/>
</linearGradient>
</defs>
</svg>
