<svg width="58" height="58" viewBox="0 0 58 58" fill="none" xmlns="http://www.w3.org/2000/svg">
<g clip-path="url(#clip0_294_55)">
<path d="M35.7923 35.9316L34.6798 38.0819C34.3446 38.7296 33.7242 39.1288 33.0526 39.1288H24.53C23.8584 39.1288 23.238 38.7296 22.9028 38.0819L21.7902 35.9316H35.7923ZM38.9069 29.9122L36.9452 33.7034H20.6373L18.6757 29.9122H38.9069ZM37.0173 24.0259L38.91 27.6841H18.6726L20.5653 24.0259H37.0173ZM33.0526 18.4614C33.7242 18.4614 34.3446 18.8606 34.6798 19.5084L35.8644 21.7977H21.7182L22.9028 19.5084C23.238 18.8606 23.8584 18.4614 24.53 18.4614H33.0526Z" fill="url(#paint0_linear_294_55)"/>
<path d="M12.1263 17.4635C11.1822 12.3681 10.9796 8.45999 11.5898 5.62214C11.9528 3.93435 12.6163 2.55747 13.6253 1.56408C14.6905 0.515314 16.0373 0.000684403 17.5506 0.000684403C20.047 0.000684403 22.6714 1.26778 25.476 3.67492C26.6199 4.65674 27.8072 5.84018 29.0402 7.2259C29.1383 7.08527 29.2493 6.95263 29.3729 6.83003C32.8588 3.37239 35.7937 1.22411 38.3039 0.395793C39.7965 -0.0967209 41.1979 -0.143643 42.474 0.334359C43.821 0.838921 44.8943 1.88193 45.6516 3.34284C46.9013 5.75388 47.2309 8.922 46.765 12.8338C46.5751 14.4283 46.2504 16.1652 45.7916 18.0471C45.9647 18.0704 46.1382 18.1131 46.31 18.1764C50.7329 19.8078 53.8648 21.5622 55.7609 23.5671C56.889 24.7599 57.6257 26.088 57.892 27.558C58.1731 29.1096 57.8991 30.6659 57.1427 32.1258C55.8953 34.5333 53.6017 36.4321 50.3341 37.9361C49.0221 38.54 47.5376 39.087 45.879 39.5789C45.9547 39.7691 46.0134 39.971 46.0527 40.183C46.9968 45.2784 47.1994 49.1865 46.5891 52.0243C46.2262 53.7121 45.5626 55.089 44.5536 56.0824C43.4884 57.1312 42.1416 57.6458 40.6283 57.6458C38.1319 57.6458 35.5076 56.3787 32.703 53.9716C31.5468 52.9793 30.3465 51.7811 29.0993 50.3763C28.971 50.5997 28.8135 50.8074 28.6271 50.9922C25.1412 54.4498 22.2063 56.5981 19.6961 57.4264C18.2035 57.9189 16.8021 57.9658 15.526 57.4878C14.179 56.9833 13.1057 55.9403 12.3484 54.4794C11.0987 52.0683 10.7691 48.9002 11.235 44.9884C11.4318 43.3363 11.7733 41.5313 12.2586 39.5705C12.0689 39.5491 11.8784 39.5044 11.69 39.4349C7.26712 37.8035 4.13522 36.0492 2.2391 34.0443C1.11095 32.8514 0.374261 31.5234 0.107952 30.0533C-0.173138 28.5017 0.100946 26.9454 0.857317 25.4856C2.10472 23.078 4.39834 21.1792 7.66589 19.6752C9.01702 19.0533 10.551 18.4918 12.2697 17.9886C12.2085 17.8218 12.1601 17.6464 12.1263 17.4635Z" fill="#372840"/>
<path d="M42.9669 40.6838C43.4067 40.597 43.8281 40.9108 43.9263 41.3923L43.9317 41.4208L43.9786 41.6917C45.4988 50.5876 44.4279 55.0355 40.766 55.0355C37.1831 55.0355 32.6222 51.2401 27.0833 43.6492C26.9609 43.4815 26.8949 43.2716 26.8965 43.0555C26.9005 42.5522 27.2634 42.1459 27.7124 42.135L27.7384 42.1348L28.0301 42.1371C30.3609 42.1512 32.6268 42.0607 34.8278 41.8657C37.4259 41.6356 40.139 41.2416 42.9669 40.6838ZM17.8182 33.9594L17.8323 33.9858L17.9786 34.2701C19.1515 36.5397 20.3735 38.6938 21.6446 40.7324C23.1415 43.1333 24.8249 45.5638 26.6947 48.0239C26.9839 48.4045 26.9509 48.9694 26.6246 49.3054L26.6034 49.3265L26.4152 49.5067C20.2287 55.4068 16.2077 56.5846 14.3522 53.0403C12.536 49.5709 13.1945 43.2626 16.3277 34.1153C16.3965 33.9143 16.5259 33.7461 16.6938 33.6395C17.0861 33.3903 17.5834 33.5342 17.8182 33.9594ZM46.1062 20.8328L46.1316 20.842L46.3645 20.9315C54.0007 23.8881 56.9019 27.1373 55.0681 30.6791C53.2745 34.1431 48.0605 36.6652 39.4259 38.2453C39.2334 38.2806 39.0358 38.2396 38.8676 38.1295C38.4703 37.8695 38.3375 37.3003 38.5711 36.858C39.8078 34.5166 40.9217 32.1868 41.9126 29.8686C43.0365 27.2396 44.0912 24.4178 45.0767 21.403C45.2261 20.9459 45.665 20.6977 46.0808 20.8245L46.1062 20.8328ZM19.1324 19.3442C19.5297 19.6041 19.6625 20.1734 19.4289 20.6157C18.1922 22.9571 17.0784 25.2869 16.0874 27.605C14.9635 30.2341 13.9088 33.0559 12.9233 36.0707C12.7709 36.5371 12.3169 36.786 11.8938 36.6409L11.8684 36.6317L11.6356 36.5422C3.99934 33.5856 1.09813 30.3364 2.93196 26.7946C4.7255 23.3306 9.93954 20.8085 18.5741 19.2283C18.7666 19.1931 18.9642 19.2341 19.1324 19.3442ZM43.6478 4.78175C45.464 8.25114 44.8055 14.5595 41.6723 23.7067C41.6035 23.9077 41.4741 24.0759 41.3062 24.1825C40.9139 24.4317 40.4166 24.2878 40.1818 23.8626L40.1678 23.8363L40.0214 23.552C38.8485 21.2824 37.6265 19.1282 36.3555 17.0896C34.8585 14.6887 33.1752 12.2582 31.3053 9.79811C31.0161 9.41753 31.0491 8.85262 31.3754 8.51666L31.3967 8.49553L31.5848 8.31529C37.7713 2.41523 41.7923 1.23738 43.6478 4.78175ZM17.547 2.67041C21.1298 2.67041 25.6907 6.46583 31.2297 14.0567C31.3521 14.2244 31.4181 14.4343 31.4165 14.6504C31.4124 15.1537 31.0496 15.56 30.6006 15.5709L30.5746 15.5711L30.2829 15.5688C27.9521 15.5547 25.6862 15.6452 23.4852 15.8402C20.887 16.0703 18.174 16.4643 15.346 17.0221C14.9063 17.1089 14.4849 16.7951 14.3867 16.3136L14.3813 16.2851L14.3344 16.0142C12.8142 7.11834 13.8851 2.67041 17.547 2.67041Z" fill="url(#paint1_linear_294_55)"/>
<path d="M25.2151 18.5774H32.3691C33.4153 18.5774 34.3816 19.2002 34.9024 20.2102L38.4944 27.1767C39.0112 28.1789 39.0112 29.411 38.4944 30.4132L34.9024 37.3797C34.3816 38.3897 33.4153 39.0125 32.3691 39.0125H25.2151C24.1689 39.0125 23.2026 38.3897 22.6818 37.3797L19.0898 30.4132C18.573 29.411 18.573 28.1789 19.0898 27.1767L22.6818 20.2102C23.2026 19.2002 24.1689 18.5774 25.2151 18.5774ZM31.2787 20.68C32.3255 20.68 33.2923 21.3035 33.8128 22.3144L36.3176 27.1782C36.8334 28.1796 36.8334 29.4103 36.3176 30.4117L33.8128 35.2756C33.2923 36.2864 32.3255 36.9099 31.2787 36.9099H26.3055C25.2587 36.9099 24.2919 36.2864 23.7714 35.2756L21.2666 30.4117C20.7508 29.4103 20.7508 28.1796 21.2666 27.1782L23.7714 22.3144C24.2919 21.3035 25.2587 20.68 26.3055 20.68H31.2787ZM30.1035 22.9798H27.4807C26.435 22.9798 25.469 23.602 24.9481 24.6112L23.6245 27.1753C23.1067 28.1782 23.1067 29.4117 23.6245 30.4146L24.9481 32.9787C25.469 33.9879 26.435 34.6101 27.4807 34.6101H30.1035C31.1492 34.6101 32.1152 33.9879 32.6361 32.9787L33.9598 30.4146C34.4775 29.4117 34.4775 28.1782 33.9598 27.1753L32.6361 24.6112C32.1152 23.602 31.1492 22.9798 30.1035 22.9798ZM28.9719 25.181C30.0169 25.181 30.9822 25.8023 31.5034 26.8103L31.6911 27.1732C32.2103 28.1772 32.2103 29.4128 31.6911 30.4167L31.5034 30.7796C30.9822 31.7876 30.0169 32.4089 28.9719 32.4089H28.6123C27.5673 32.4089 26.602 31.7876 26.0808 30.7796L25.8931 30.4167C25.374 29.4128 25.374 28.1772 25.8931 27.1732L26.0808 26.8103C26.602 25.8023 27.5673 25.181 28.6123 25.181H28.9719ZM28.7926 27.3494C28.3275 27.3494 27.8986 27.6249 27.6664 28.0722C27.4342 28.5194 27.4342 29.0705 27.6664 29.5178C27.8986 29.965 28.3275 30.2405 28.7916 30.2405C29.2567 30.2405 29.6856 29.965 29.9178 29.5178C30.15 29.0705 30.15 28.5194 29.9178 28.0722C29.6856 27.6249 29.2567 27.3494 28.7926 27.3494ZM18.2554 28.795H20.5937Z" fill="url(#paint2_linear_294_55)"/>
</g>
<defs>
<linearGradient id="paint0_linear_294_55" x1="28.7913" y1="18.4614" x2="28.7913" y2="39.1288" gradientUnits="userSpaceOnUse">
<stop stop-color="#EBD7BE"/>
<stop offset="1" stop-color="#C99965"/>
</linearGradient>
<linearGradient id="paint1_linear_294_55" x1="29" y1="2.67041" x2="29" y2="55.0355" gradientUnits="userSpaceOnUse">
<stop stop-color="#EBD7BE"/>
<stop offset="1" stop-color="#C99965"/>
</linearGradient>
<linearGradient id="paint2_linear_294_55" x1="28.5687" y1="18.5774" x2="28.5687" y2="39.0126" gradientUnits="userSpaceOnUse">
<stop stop-color="#EBD7BE"/>
<stop offset="1" stop-color="#C99965"/>
</linearGradient>
<clipPath id="clip0_294_55">
<rect width="58" height="58" fill="white"/>
</clipPath>
</defs>
</svg>
