<svg width="65" height="68" viewBox="0 0 65 68" fill="none" xmlns="http://www.w3.org/2000/svg">
<path d="M45.0381 47.4906C47.4369 47.2172 49.2566 44.9383 49.1739 42.2038C49.0912 39.4692 47.0233 37.2815 44.5418 37.2815H44.3764C41.8122 37.3727 39.8271 39.7426 39.9098 42.5684C39.9925 43.9357 40.4888 45.1206 41.2332 45.941C38.4209 52.0483 34.1197 56.5147 27.6679 60.252C23.284 62.8043 18.7347 63.7158 14.1854 63.0777C10.4632 62.5308 7.56813 60.7078 5.7484 57.6997C3.10151 53.2332 2.85336 48.4021 5.08668 43.571C6.65826 40.1072 9.13972 37.555 10.7113 36.2788C10.3805 35.0938 9.88416 33.0885 9.63601 31.63C-2.35769 41.2011 -1.11697 54.1448 2.5225 60.252C5.25211 64.8096 10.794 67.6354 16.915 67.6354C18.5693 67.6354 20.2236 67.4531 21.8779 66.9973C32.4654 64.7185 40.4888 57.7909 45.0381 47.4906ZM59.596 36.1877C53.3097 28.0751 44.0455 23.6086 33.458 23.6086H32.1346C31.3901 21.9678 29.8185 20.874 28.0815 20.874H27.9161C25.3519 20.9651 23.3667 23.3351 23.4495 26.1609C23.5322 28.8954 25.6001 31.0831 28.0815 31.0831H28.2469C30.0667 30.992 31.6383 29.7158 32.3 27.9839H33.7889C40.0752 27.9839 46.0307 29.9893 51.4072 33.9088C55.543 36.9169 58.5207 40.8365 60.175 45.5764C61.5812 49.4048 61.4985 53.1421 60.0096 56.3324C57.6936 61.1635 53.8059 63.807 48.6776 63.807C45.369 63.807 42.2258 62.7131 40.5715 61.8928C39.6616 62.8043 38.0073 64.2627 36.8493 65.1743C40.4061 66.9973 44.0456 68 47.5196 68C55.4603 68 61.333 63.1689 63.5663 58.3378C65.9651 53.0509 65.7997 43.9357 59.596 36.1877ZM17.5767 49.0402C17.6594 51.7748 19.7273 53.9625 22.2087 53.9625H22.3742C24.9383 53.8713 26.9235 51.5013 26.8408 48.6756C26.7581 45.941 24.6902 43.7534 22.2087 43.7534H22.0433C21.8779 43.7534 21.6297 43.7534 21.4643 43.8445C18.073 37.6461 16.6668 30.9008 17.1631 23.6086C17.494 18.1394 19.1483 13.3995 22.0433 9.47989C24.442 6.10724 29.0741 4.46649 32.2173 4.37534C40.9851 4.19303 44.7073 16.2252 44.9554 21.0563C46.0307 21.3298 47.8505 21.9678 49.0912 22.4236C48.0986 7.65684 39.8271 0 31.8864 0C24.442 0 17.5767 5.92493 14.8471 14.6756C11.0422 26.3432 13.5236 37.555 18.1557 46.3968C17.7421 47.0349 17.494 48.0375 17.5767 49.0402Z" fill="url(#paint0_linear_267_3)"/>
<defs>
<linearGradient id="paint0_linear_267_3" x1="32.5" y1="0" x2="32.5" y2="68" gradientUnits="userSpaceOnUse">
<stop stop-color="#EBD7BE"/>
<stop offset="1" stop-color="#C99965"/>
</linearGradient>
</defs>
</svg>
