<svg width="62" height="62" viewBox="0 0 62 62" fill="none" xmlns="http://www.w3.org/2000/svg">
<g clip-path="url(#clip0_293_33)">
<path d="M41.8862 17.4685L41.6924 18.4786C41.3927 20.3928 41.5012 20.9405 42.3227 21.6509L43.1158 22.3071L42.2943 25.9703C41.8035 28.1558 41.2016 29.9873 40.8192 30.5893C40.4912 31.1085 40.1088 31.8732 40.0262 32.2839C39.8892 32.7748 39.4242 33.2682 38.7138 33.7048C38.0861 34.0613 36.8538 35.0171 35.9807 35.7843C35.2832 36.4121 34.8027 36.797 34.5417 36.9623L33.6892 37.6366C33.4154 38.0758 33.2604 38.4297 33.201 38.6983C33.1416 38.9748 33.1752 39.1582 33.263 39.2925C33.3483 39.4217 33.4955 39.5121 33.697 39.5689C33.9355 39.6248 34.1811 39.6449 34.4255 39.6283C34.9785 39.5906 35.5259 39.4936 36.0582 39.339C36.239 39.2899 36.3811 39.2434 36.5051 39.2021C36.6962 38.967 37.138 38.5227 37.9207 37.7503C39.9977 35.7017 40.7908 34.5805 39.9719 34.8828C39.6697 34.9913 39.8066 34.7174 40.3258 34.1698C41.4212 33.1028 42.0489 31.4908 43.3612 26.4353C44.3997 22.444 44.3997 22.3872 45.1644 22.3872C45.5235 22.3872 46.5387 22.4492 46.5387 22.4492V17.4685H44.2086H41.8862ZM51.8036 25.6448C51.6382 25.6448 51.3644 25.8928 51.2017 26.1666C50.902 26.6574 51.2559 26.9571 55.7664 29.7729C58.4453 31.4702 60.605 32.9168 60.5507 33.0279C60.4965 33.108 58.3084 34.5314 55.6863 36.1718C50.9278 39.122 50.902 39.1504 51.3386 39.7523C51.8862 40.4628 51.3386 40.7082 57.5153 36.8538L62 33.9838V31.8241L56.9961 28.7344C54.2913 27.0398 51.9405 25.6732 51.8036 25.6448ZM10.2507 25.947C10.1137 25.947 7.76292 27.342 5.05817 29.0083L0 32.0979V34.2576L5.02975 37.4015C7.81975 39.122 10.1706 40.5454 10.2791 40.5454C10.3876 40.5454 10.6072 40.2974 10.8267 39.9978C11.1548 39.4785 10.8784 39.2589 6.25942 36.3346C1.86 33.573 1.395 33.1907 1.83417 32.891C2.108 32.6998 4.185 31.4133 6.42733 30.0209C11.5397 26.877 11.2659 27.094 10.8552 26.4378C10.6924 26.1666 10.416 25.9212 10.2532 25.947H10.2507ZM32.6843 26.0064C31.93 26.0013 30.3077 27.1508 25.451 31.1163C25.2417 31.6148 25.2237 31.9584 25.3192 32.1806C25.3812 32.333 25.4949 32.4389 25.6525 32.5164C25.8075 32.5939 26.009 32.6404 26.2312 32.6585C26.6729 32.6973 27.1947 32.6275 27.6158 32.5448L27.9 32.4803C27.9973 32.3498 28.125 32.2452 28.272 32.1754C28.5717 32.0101 29.8298 30.8631 31.0878 29.6334C33.3017 27.3911 33.821 26.3784 32.9194 26.0503C32.8455 26.0209 32.7639 26.006 32.6843 26.0064ZM38.3573 27.5642C37.6934 27.5823 36.4973 28.3521 34.4487 29.9873C33.4206 30.8218 32.7696 31.2713 32.4208 31.3643L31.0672 32.4338C30.5582 33.3638 30.4833 33.9398 30.6177 34.2576C30.6513 34.336 30.7001 34.4069 30.7613 34.4663C30.8225 34.5257 30.8948 34.5725 30.9742 34.6038C31.1715 34.6817 31.382 34.7211 31.5942 34.72C32.1012 34.7146 32.6052 34.6407 33.0925 34.5004C33.3465 34.4323 33.5973 34.353 33.8442 34.2628L33.9192 34.2318L34.0561 34.1594C34.3144 33.8262 34.9086 33.1984 35.6526 32.4751C38.0034 30.2069 39.2047 28.5949 38.9592 27.993C38.8482 27.7011 38.657 27.5538 38.3573 27.5642ZM32.0953 30.3542C31.9042 30.3748 31.4753 30.7055 30.7029 31.3823C29.5869 32.3692 28.3702 32.9375 27.9491 32.6843C27.8512 32.7064 27.753 32.7271 27.6546 32.7463C27.2257 32.8316 26.691 32.9013 26.2131 32.8626C25.9879 32.8489 25.7672 32.7938 25.5621 32.6998C25.3686 32.6114 25.2142 32.4552 25.1281 32.2607C25.0325 32.0282 25.0325 31.7388 25.141 31.3694L23.4618 32.7489L19.6617 35.8928V40.9898L32.1134 31.1808C32.111 31.0734 32.1249 30.9663 32.1547 30.8631C32.2503 30.5169 32.2452 30.3413 32.0953 30.3568V30.3542ZM37.4532 32.0049C37.2646 32.0049 36.9494 32.271 36.4457 32.8058C35.7611 33.5368 34.6838 34.2447 34.1129 34.3893L34.0251 34.4358C33.9313 34.4745 33.8366 34.5107 33.7409 34.5443C33.5859 34.596 33.3844 34.658 33.1519 34.72C32.6869 34.8466 32.1082 34.9628 31.5916 34.9499C31.348 34.9496 31.1068 34.9022 30.8812 34.8104C30.6685 34.7228 30.4981 34.5561 30.4058 34.3454C30.256 33.9863 30.3154 33.4826 30.6435 32.767L19.6592 41.4186V44.5315H24.4848L34.72 36.4922C34.9861 36.1977 35.3865 35.7947 35.9264 35.2909C37.3731 33.9502 37.7012 33.4878 37.7012 32.8032C37.7012 32.271 37.6417 32.0023 37.4532 32.0023V32.0049ZM39.8892 37.0424L39.0135 37.9156C38.5227 38.3806 37.6469 38.9541 37.0476 39.1995L36.9287 39.2512L36.921 39.2641L36.8952 39.2899C36.8719 39.308 36.8616 39.3106 36.8435 39.3183C36.6042 39.4089 36.3612 39.4891 36.115 39.5586C35.5676 39.7179 35.0046 39.8175 34.4358 39.8557C34.1669 39.8729 33.8969 39.8494 33.635 39.7859C33.4077 39.7359 33.2071 39.6033 33.0718 39.4139C32.9478 39.2228 32.9117 38.967 32.9814 38.6518C33.0369 38.4275 33.1193 38.2106 33.2268 38.006L24.9679 44.5315H35.9522L37.2646 43.028C39.0677 40.9252 39.8892 39.4217 39.8892 38.1352V37.0424Z" fill="url(#paint0_linear_293_33)"/>
</g>
<defs>
<linearGradient id="paint0_linear_293_33" x1="31" y1="17.4685" x2="31" y2="44.5315" gradientUnits="userSpaceOnUse">
<stop stop-color="#EBD7BE"/>
<stop offset="1" stop-color="#C99965"/>
</linearGradient>
<clipPath id="clip0_293_33">
<rect width="62" height="62" fill="white"/>
</clipPath>
</defs>
</svg>
