<svg width="59" height="61" viewBox="0 0 59 61" fill="none" xmlns="http://www.w3.org/2000/svg">
<g clip-path="url(#clip0_293_19)">
<path d="M34.6112 59.5338C33.0896 61.4777 30.0045 60.4126 29.9679 57.9305L29.4318 21.6267H53.4936C57.8519 21.6267 60.2825 26.7335 57.5725 30.1962L34.6112 59.5338Z" fill="url(#paint0_linear_293_19)"/>
<path d="M34.6112 59.5338C33.0896 61.4777 30.0045 60.4126 29.9679 57.9305L29.4318 21.6267H53.4936C57.8519 21.6267 60.2825 26.7335 57.5725 30.1962L34.6112 59.5338Z" fill="url(#paint1_linear_293_19)" fill-opacity="0.2"/>
<path d="M24.8257 1.118C26.3473 -0.826116 29.4325 0.239121 29.4691 2.72126L29.7041 39.025H5.94334C1.58496 39.025 -0.845787 33.9182 1.86438 30.4555L24.8257 1.118Z" fill="url(#paint2_linear_293_19)"/>
</g>
<defs>
<linearGradient id="paint0_linear_293_19" x1="44.0717" y1="21.6267" x2="44.0717" y2="60.5377" gradientUnits="userSpaceOnUse">
<stop stop-color="#EBD7BE"/>
<stop offset="1" stop-color="#C99965"/>
</linearGradient>
<linearGradient id="paint1_linear_293_19" x1="19.9506" y1="16.5066" x2="29.9241" y2="35.013" gradientUnits="userSpaceOnUse">
<stop/>
<stop offset="1" stop-opacity="0"/>
</linearGradient>
<linearGradient id="paint2_linear_293_19" x1="15.2146" y1="0.114014" x2="15.2146" y2="39.025" gradientUnits="userSpaceOnUse">
<stop stop-color="#EBD7BE"/>
<stop offset="1" stop-color="#C99965"/>
</linearGradient>
<clipPath id="clip0_293_19">
<rect width="58" height="61" fill="white" transform="translate(0.711792)"/>
</clipPath>
</defs>
</svg>
