<svg width="106" height="65" viewBox="0 0 106 65" fill="none" xmlns="http://www.w3.org/2000/svg">
<mask id="mask0_273_8" style="mask-type:luminance" maskUnits="userSpaceOnUse" x="0" y="0" width="106" height="64">
<path d="M0 0H106V63.8182H0V0Z" fill="white"/>
</mask>
<g mask="url(#mask0_273_8)">
<path fill-rule="evenodd" clip-rule="evenodd" d="M53 0C38.8667 0 30.0333 7.09091 26.5 21.2727C31.8 14.1818 37.9833 11.5227 45.05 13.2955C49.0819 14.3059 51.9636 17.2427 55.1534 20.4908C60.3493 25.7833 66.3639 31.9091 79.5 31.9091C93.6333 31.9091 102.467 24.8182 106 10.6364C100.7 17.7273 94.5167 20.3864 87.45 18.6136C83.4181 17.6032 80.5364 14.6664 77.3466 11.4183C72.1507 6.12576 66.1361 0 53 0ZM26.5 31.9091C12.3667 31.9091 3.53333 39 0 53.1818C5.3 46.0909 11.4833 43.4318 18.55 45.2045C22.5819 46.217 25.4636 49.1518 28.6534 52.3999C33.8493 57.6924 39.8639 63.8182 53 63.8182C67.1333 63.8182 75.9667 56.7273 79.5 42.5455C74.2 49.6364 68.0167 52.2955 60.95 50.5227C56.9181 49.5123 54.0364 46.5755 50.8466 43.3274C45.6507 38.0348 39.6361 31.9091 26.5 31.9091Z" fill="url(#paint0_linear_273_8)"/>
</g>
<defs>
<linearGradient id="paint0_linear_273_8" x1="53" y1="0" x2="53" y2="63.8182" gradientUnits="userSpaceOnUse">
<stop stop-color="#EBD7BE"/>
<stop offset="1" stop-color="#C99965"/>
</linearGradient>
</defs>
</svg>
