<svg width="58" height="58" viewBox="0 0 58 58" fill="none" xmlns="http://www.w3.org/2000/svg">
<path d="M5.47065 0H50.5294C53.5474 0 56 2.44696 56 5.47065V50.5294C56 53.5474 53.553 56 50.5294 56H5.47065C2.44696 55.9944 0 53.5474 0 50.5237V5.47065C0 2.44696 2.44696 0 5.47065 0Z" fill="url(#paint0_linear_293_41)"/>
<path fill-rule="evenodd" clip-rule="evenodd" d="M35.9078 46.1043V51.7709C36.8242 52.2465 37.9494 52.6003 39.1906 52.8381C40.4318 53.0759 41.7948 53.1919 43.1578 53.1919C44.5208 53.1919 45.762 53.0701 47.009 52.8091C48.256 52.5481 49.2768 52.1189 50.1816 51.5621C51.098 50.9589 51.881 50.2049 52.3334 49.1841C52.7858 48.1633 53.1396 47.0323 53.1396 45.5591C53.1396 44.5267 52.983 43.6335 52.6756 42.8389C52.3682 42.0443 51.9274 41.3657 51.3184 40.7973C50.7384 40.1941 50.0714 39.6663 49.2768 39.2139C48.4822 38.7615 47.5774 38.2859 46.5566 37.8567C45.8084 37.5493 45.1994 37.2535 44.515 36.9635C43.9234 36.6677 43.4188 36.3719 43.0418 36.0819C42.6242 35.7745 42.3052 35.4613 42.079 35.1307C41.8528 34.7885 41.7368 34.4173 41.7368 33.9997C41.7368 33.6169 41.8354 33.2631 42.0442 32.9441C42.2472 32.6251 42.5314 32.3641 42.891 32.1379C43.2564 31.9117 43.7088 31.7435 44.2482 31.6159C44.7818 31.4941 45.3676 31.4361 46.0636 31.4361C46.5392 31.4361 47.038 31.4709 47.5368 31.5405C48.0588 31.6101 48.5924 31.7203 49.1202 31.8711C49.6538 32.0161 50.1758 32.2017 50.7036 32.4279C51.2024 32.6541 51.6664 32.9151 52.0608 33.2109V27.8865C51.2024 27.5559 50.2454 27.3065 49.2304 27.1499C48.2096 26.9933 47.0786 26.9121 45.7214 26.9121C44.3642 26.9121 43.1172 27.0571 41.8702 27.3413C40.6232 27.6255 39.6024 28.0779 38.6976 28.6985C37.7812 29.3075 37.1142 30.0557 36.5458 31.0765C36.0122 32.0277 35.7512 33.1181 35.7512 34.4753C35.7512 36.1747 36.2384 37.6479 37.2244 38.7789C38.1988 40.0259 39.7184 40.9307 41.644 41.8355C42.427 42.1545 43.1172 42.4677 43.7958 42.7751C44.4744 43.0825 45.0428 43.3957 45.4952 43.7263C45.9824 44.0569 46.3652 44.4165 46.6262 44.8051C46.9104 45.1879 47.0554 45.6461 47.0554 46.1623C47.0554 46.5277 46.9684 46.8641 46.7944 47.1831C46.6204 47.5021 46.3536 47.7747 45.9882 48.0009C45.6228 48.2271 45.182 48.4069 44.631 48.5461C44.0974 48.6679 43.5 48.7375 42.7054 48.7375C41.4584 48.7375 40.2114 48.5229 39.0804 48.0937C37.8334 47.6645 36.7024 47.0149 35.6816 46.1681L35.9078 46.1043ZM26.3958 32.1727H33.6458V27.5269H13.369V32.1727H20.619V52.9019H26.3958V32.1727Z" fill="#220534"/>
<defs>
<linearGradient id="paint0_linear_293_41" x1="28" y1="0" x2="28" y2="56" gradientUnits="userSpaceOnUse">
<stop stop-color="#EBD7BE"/>
<stop offset="1" stop-color="#C99965"/>
</linearGradient>
</defs>
</svg>
