<svg width="28" height="32" fill="none" xmlns="http://www.w3.org/2000/svg"><g clip-path="url(#a)"><path fill="#220534" d="M0 0h28v32H0z"/><path d="M14 12.666a3.333 3.333 0 1 0 .002 6.667A3.333 3.333 0 0 0 14 12.666Zm7.794-2.562a3.374 3.374 0 0 0-1.9-1.9C18.58 7.684 15.456 7.8 14 7.8c-1.456 0-4.578-.12-5.894.402a3.375 3.375 0 0 0-1.901 1.9c-.518 1.313-.402 4.441-.402 5.896s-.115 4.58.404 5.897a3.374 3.374 0 0 0 1.901 1.9c1.313.518 4.438.402 5.894.402 1.457 0 4.578.12 5.894-.402a3.373 3.373 0 0 0 1.9-1.9c.523-1.313.403-4.441.403-5.896s.12-4.579-.402-5.896h-.003ZM14 21.125a5.125 5.125 0 1 1 0-10.25 5.125 5.125 0 0 1 0 10.25Zm5.336-9.269a1.195 1.195 0 1 1 1.196-1.196 1.194 1.194 0 0 1-1.193 1.199l-.003-.003ZM25 2H3a3 3 0 0 0-3 3v22a3 3 0 0 0 3 3h22a3 3 0 0 0 3-3V5a3 3 0 0 0-3-3Zm-1.07 18.125c-.08 1.602-.446 3.021-1.616 4.188-1.169 1.166-2.587 1.539-4.187 1.615-1.65.093-6.6.093-8.25 0-1.602-.08-3.016-.447-4.188-1.616-1.17-1.168-1.539-2.588-1.615-4.187-.093-1.651-.093-6.6 0-8.25.08-1.602.442-3.021 1.615-4.188 1.174-1.166 2.592-1.535 4.188-1.61 1.65-.094 6.6-.094 8.25 0 1.602.08 3.02.446 4.187 1.615 1.167 1.169 1.54 2.589 1.616 4.19.093 1.646.093 6.59 0 8.243Z" fill="url(#b)"/></g><defs><linearGradient id="b" x1="14" y1="2" x2="14" y2="30" gradientUnits="userSpaceOnUse"><stop stop-color="#A575BD"/><stop offset="1" stop-color="#3D1357"/></linearGradient><clipPath id="a"><path fill="#fff" d="M0 0h28v32H0z"/></clipPath></defs></svg>