<svg width="60" height="69" fill="none" xmlns="http://www.w3.org/2000/svg"><path d="M53.571 4.313H6.43C2.879 4.313 0 7.21 0 10.78V58.22c0 3.571 2.88 6.468 6.429 6.468H53.57c3.55 0 6.429-2.897 6.429-6.468V10.78c0-3.571-2.88-6.469-6.429-6.469Zm-16.433 51.71c-1.125.201-1.54-.5-1.54-1.08 0-.727.027-4.446.027-7.452 0-2.102-.696-3.436-1.513-4.137 4.955-.552 10.178-1.24 10.178-9.851 0-2.453-.87-3.68-2.29-5.256.228-.58.991-2.965-.228-6.065-1.861-.58-6.12 2.413-6.12 2.413a20.744 20.744 0 0 0-5.572-.755c-1.888 0-3.803.256-5.571.755 0 0-4.259-2.992-6.12-2.413-1.22 3.087-.47 5.472-.228 6.065-1.42 1.577-2.09 2.803-2.09 5.256 0 8.57 4.996 9.299 9.951 9.851-.642.58-1.218 1.577-1.42 3.005-1.272.58-4.526 1.577-6.468-1.873-1.219-2.13-3.415-2.304-3.415-2.304-2.17-.027-.148 1.374-.148 1.374 1.447.674 2.465 3.262 2.465 3.262 1.299 4.002 7.513 2.654 7.513 2.654 0 1.874.027 4.92.027 5.472 0 .58-.402 1.28-1.54 1.078-8.84-2.978-15.027-11.441-15.027-21.333 0-12.372 9.402-21.765 21.696-21.765 12.295 0 22.26 9.393 22.26 21.765.013 9.892-5.987 18.368-14.827 21.333ZM24 47.787c-.255.054-.495-.054-.522-.23-.027-.201.147-.377.401-.43.255-.027.496.08.523.256.04.175-.134.35-.402.404Zm-1.272-.121c0 .175-.201.323-.47.323-.294.027-.495-.121-.495-.323 0-.176.201-.324.47-.324.254-.027.495.121.495.324Zm-1.835-.149c-.054.176-.322.256-.55.176-.254-.054-.428-.257-.374-.432.053-.175.321-.256.549-.202.268.081.442.283.375.458Zm-1.648-.727c-.12.148-.375.12-.575-.081-.201-.175-.255-.431-.12-.553.12-.148.374-.121.575.081.174.175.241.445.12.553Zm-1.218-1.227c-.12.081-.348 0-.496-.202-.147-.202-.147-.431 0-.526.148-.12.375-.026.496.176.147.202.147.444 0 .552Zm-.87-1.307c-.121.121-.322.054-.47-.08-.147-.176-.174-.378-.053-.472.12-.122.321-.054.469.08.147.176.174.378.053.472Zm-.898-.997c-.054.121-.228.148-.375.054-.174-.081-.255-.23-.201-.35.054-.082.2-.122.375-.055.174.095.255.243.2.35Z" fill="url(#a)"/><path d="M53.571 4.313H6.43C2.879 4.313 0 7.21 0 10.78V58.22c0 3.571 2.88 6.468 6.429 6.468H53.57c3.55 0 6.429-2.897 6.429-6.468V10.78c0-3.571-2.88-6.469-6.429-6.469Zm-16.433 51.71c-1.125.201-1.54-.5-1.54-1.08 0-.727.027-4.446.027-7.452 0-2.102-.696-3.436-1.513-4.137 4.955-.552 10.178-1.24 10.178-9.851 0-2.453-.87-3.68-2.29-5.256.228-.58.991-2.965-.228-6.065-1.861-.58-6.12 2.413-6.12 2.413a20.744 20.744 0 0 0-5.572-.755c-1.888 0-3.803.256-5.571.755 0 0-4.259-2.992-6.12-2.413-1.22 3.087-.47 5.472-.228 6.065-1.42 1.577-2.09 2.803-2.09 5.256 0 8.57 4.996 9.299 9.951 9.851-.642.58-1.218 1.577-1.42 3.005-1.272.58-4.526 1.577-6.468-1.873-1.219-2.13-3.415-2.304-3.415-2.304-2.17-.027-.148 1.374-.148 1.374 1.447.674 2.465 3.262 2.465 3.262 1.299 4.002 7.513 2.654 7.513 2.654 0 1.874.027 4.92.027 5.472 0 .58-.402 1.28-1.54 1.078-8.84-2.978-15.027-11.441-15.027-21.333 0-12.372 9.402-21.765 21.696-21.765 12.295 0 22.26 9.393 22.26 21.765.013 9.892-5.987 18.368-14.827 21.333ZM24 47.787c-.255.054-.495-.054-.522-.23-.027-.201.147-.377.401-.43.255-.027.496.08.523.256.04.175-.134.35-.402.404Zm-1.272-.121c0 .175-.201.323-.47.323-.294.027-.495-.121-.495-.323 0-.176.201-.324.47-.324.254-.027.495.121.495.324Zm-1.835-.149c-.054.176-.322.256-.55.176-.254-.054-.428-.257-.374-.432.053-.175.321-.256.549-.202.268.081.442.283.375.458Zm-1.648-.727c-.12.148-.375.12-.575-.081-.201-.175-.255-.431-.12-.553.12-.148.374-.121.575.081.174.175.241.445.12.553Zm-1.218-1.227c-.12.081-.348 0-.496-.202-.147-.202-.147-.431 0-.526.148-.12.375-.026.496.176.147.202.147.444 0 .552Zm-.87-1.307c-.121.121-.322.054-.47-.08-.147-.176-.174-.378-.053-.472.12-.122.321-.054.469.08.147.176.174.378.053.472Zm-.898-.997c-.054.121-.228.148-.375.054-.174-.081-.255-.23-.201-.35.054-.082.2-.122.375-.055.174.095.255.243.2.35Z" fill="url(#b)"/><defs><linearGradient id="a" x1="30" y1="4.313" x2="30" y2="64.688" gradientUnits="userSpaceOnUse"><stop stop-color="#EBD7BE"/><stop offset="1" stop-color="#C99965"/></linearGradient><linearGradient id="b" x1="30" y1="4.313" x2="30" y2="64.688" gradientUnits="userSpaceOnUse"><stop stop-color="#EBD7BE"/><stop offset="1" stop-color="#C99965"/></linearGradient></defs></svg>